<mxfile host="Electron" agent="Mozilla/5.0 (Windows NT 10.0; Win64; x64) AppleWebKit/537.36 (KHTML, like Gecko) draw.io/24.7.17 Chrome/128.0.6613.36 Electron/32.0.1 Safari/537.36" version="24.7.17">
  <diagram name="Página-1" id="Page-1">
    <mxGraphModel dx="1227" dy="564" grid="1" gridSize="10" guides="1" tooltips="1" connect="1" arrows="1" fold="1" page="1" pageScale="1" pageWidth="827" pageHeight="1169" background="#ffffff" math="0" shadow="0">
      <root>
        <mxCell id="0" />
        <mxCell id="1" parent="0" />
        <UserObject label="" tags="Fondo" id="2">
          <mxCell style="vsdxID=7;fillColor=#ffffff;gradientColor=none;shape=stencil(vVHLDsIgEPwajiQU4hfU+h8bu7RELM2CFv9eyMZYjCcP3mZ2Zh/ZEaaPM6wotIqJwgU3N6ZZmKPQ2i0zkksFCTMI09tAOFG4LSPzFaqzomu41wmZ+1Tt0OrB7MD0xE6gc5EoN5qi1vsa1Kmvo1SWkF2UFBIkF5ZmqweaUJY10nqYGiluiOuu3P182P/OKuD9Zuu855T2+mcspcSRmuEJ);strokeColor=#000000;points=[[0.5,0,0],[0.5,0.5,0],[0.5,0.5,0],[0.5,0.5,0],[1,0.5,0]];labelBackgroundColor=none;rounded=0;html=1;whiteSpace=wrap;" parent="1" vertex="1">
            <mxGeometry x="620" y="451" width="120" height="54" as="geometry" />
          </mxCell>
        </UserObject>
        <mxCell id="3" value="&lt;div style=&quot;font-size: 1px&quot;&gt;&lt;font style=&quot;font-size:16.93px;font-family:Calibri;color:#000000;direction:ltr;letter-spacing:0px;line-height:120%;opacity:1&quot;&gt;Inicio&lt;br/&gt;&lt;/font&gt;&lt;/div&gt;" style="text;vsdxID=7;fillColor=none;gradientColor=none;strokeColor=none;points=[[0.5,0,0],[0.5,0.5,0],[0.5,0.5,0],[0.5,0.5,0],[1,0.5,0]];labelBackgroundColor=none;rounded=0;html=1;whiteSpace=wrap;verticalAlign=middle;align=center;overflow=width;;html=1;" parent="2" vertex="1">
          <mxGeometry x="7.5" y="2.81" width="105" height="47.78" as="geometry" />
        </mxCell>
        <UserObject label="&lt;div style=&quot;font-size: 1px&quot;&gt;&lt;font style=&quot;font-size:16.93px;font-family:Calibri;color:#000000;direction:ltr;letter-spacing:0px;line-height:120%;opacity:1&quot;&gt;USM&lt;br/&gt;&lt;/font&gt;&lt;/div&gt;" tags="Diagrama_de_flujo" id="4">
          <mxCell style="verticalAlign=middle;align=center;overflow=width;vsdxID=8;fillColor=#ffffff;gradientColor=none;shape=stencil(UzV2Ls5ILEhVNTIoLinKz04tz0wpyVA1dlE1MsrMy0gtyiwBslSNXVWNndPyi1LTi/JL81Ig/IJEkEoQKze/DGRCBUSfqZ6hKUiTkUElRMDQwADMd4OozsnMQ1INkyRLMR6lGK7AoxbVUFNSTEVzLpCBCJa0zJwcSKgiy6MHI1AIEgXGrgA=);strokeColor=#000000;spacingTop=-1;spacingBottom=-1;spacingLeft=-1;spacingRight=-1;points=[[0.5,0,0],[0.5,0.5,0],[1,0.5,0]];labelBackgroundColor=none;rounded=0;html=1;whiteSpace=wrap;" parent="1" vertex="1">
            <mxGeometry x="640" y="536" width="79" height="32" as="geometry" />
          </mxCell>
        </UserObject>
        <UserObject label="&lt;div style=&quot;font-size: 1px&quot;&gt;&lt;font style=&quot;font-size:16.93px;font-family:Calibri;color:#000000;direction:ltr;letter-spacing:0px;line-height:120%;opacity:1&quot;&gt;Iniciar sesión&lt;br/&gt;&lt;/font&gt;&lt;/div&gt;" tags="Diagrama_de_flujo" id="5">
          <mxCell style="verticalAlign=middle;align=center;overflow=width;vsdxID=9;fillColor=#ffffff;gradientColor=none;shape=stencil(UzV2Ls5ILEhVNTIoLinKz04tz0wpyVA1dlE1MsrMy0gtyiwBslSNXVWNndPyi1LTi/JL81Ig/IJEkEoQKze/DGRCBUSfsZ6xJUiTkUElRMDQwADMd4OozsnMQ1INkyRLMR6lGK7AoxbVUFNSTEVzLpCBCJa0zJwcSKgiy6MHI1AIEgXGrgA=);strokeColor=#000000;spacingTop=-1;spacingBottom=-1;spacingLeft=-1;spacingRight=-1;points=[[0.5,0,0],[0.5,0.5,0],[1,0.5,0]];labelBackgroundColor=none;rounded=0;html=1;whiteSpace=wrap;" parent="1" vertex="1">
            <mxGeometry x="620" y="599" width="120" height="32" as="geometry" />
          </mxCell>
        </UserObject>
        <UserObject label="&lt;div style=&quot;font-size: 1px&quot;&gt;&lt;font style=&quot;font-size:16.93px;font-family:Calibri;color:#000000;direction:ltr;letter-spacing:0px;line-height:120%;opacity:1&quot;&gt;Correo&lt;br/&gt;&lt;/font&gt;&lt;/div&gt;" tags="Fondo" id="6">
          <mxCell style="verticalAlign=middle;align=center;overflow=width;vsdxID=10;fillColor=#ffffff;gradientColor=none;shape=stencil(UzV2Ls5ILEhVNTIoLinKz04tz0wpyVA1dlE1MsrMy0gtyiwBslSNXVWNndPyi1LTi/JL81Ig/IJEkEoQKze/DGRCBUSfAUiHkUElhGdoAOG7QZTmZOYhKbUkQS1MEqYYr1JiVeK1H8hA+DEtMycHEkTI8uhhAhSChKexKwA=);strokeColor=#000000;points=[[0.05,0.5,0],[0.95,0.5,0],[0.45,0.5,0],[0.55,0,0]];labelBackgroundColor=none;rounded=0;html=1;whiteSpace=wrap;" parent="1" vertex="1">
            <mxGeometry x="770" y="728" width="140" height="36" as="geometry" />
          </mxCell>
        </UserObject>
        <UserObject label="&lt;div style=&quot;font-size: 1px&quot;&gt;&lt;font style=&quot;font-size:16.93px;font-family:Calibri;color:#000000;direction:ltr;letter-spacing:0px;line-height:120%;opacity:1&quot;&gt;Contraseña&lt;br/&gt;&lt;/font&gt;&lt;/div&gt;" tags="Fondo" id="7">
          <mxCell style="verticalAlign=middle;align=center;overflow=width;vsdxID=11;fillColor=#ffffff;gradientColor=none;shape=stencil(UzV2Ls5ILEhVNTIoLinKz04tz0wpyVA1dlE1MsrMy0gtyiwBslSNXVWNndPyi1LTi/JL81Ig/IJEkEoQKze/DGRCBUSfAUiHkUElhGdoAOG7QZTmZOYhKbUkQS1MEqYYr1JiVeK1H8hA+DEtMycHEkTI8uhhAhSChKexKwA=);strokeColor=#000000;points=[[0.05,0.5,0],[0.95,0.5,0],[0.45,0.5,0],[0.55,0,0]];labelBackgroundColor=none;rounded=0;html=1;whiteSpace=wrap;" parent="1" vertex="1">
            <mxGeometry x="610" y="797" width="140" height="36" as="geometry" />
          </mxCell>
        </UserObject>
        <UserObject label="&lt;div style=&quot;font-size: 1px&quot;&gt;&lt;font style=&quot;font-size:16.93px;font-family:Calibri;color:#000000;direction:ltr;letter-spacing:0px;line-height:120%;opacity:1&quot;&gt;correo&lt;br/&gt;&lt;/font&gt;&lt;/div&gt;" tags="Diagrama_de_flujo" id="8">
          <mxCell style="verticalAlign=middle;align=center;overflow=width;vsdxID=12;fillColor=#ffffff;gradientColor=none;shape=stencil(UzV2Ls5ILEhVNTIoLinKz04tz0wpyVA1dlE1MsrMy0gtyiwBslSNXVWNndPyi1LTi/JL81Ig/IJEkEoQKze/DGRCBUSfsZ6xJUiTkUElRMDQwADMd4OozsnMQ1INkyRLMR6lGK7AoxbVUFNSTEVzLpCBCJa0zJwcSKgiy6MHI1AIEgXGrgA=);strokeColor=#000000;spacingTop=-1;spacingBottom=-1;spacingLeft=-1;spacingRight=-1;points=[[0.5,0,0],[0.5,0.5,0],[1,0.5,0]];labelBackgroundColor=none;rounded=0;html=1;whiteSpace=wrap;" parent="1" vertex="1">
            <mxGeometry x="620" y="730" width="120" height="32" as="geometry" />
          </mxCell>
        </UserObject>
        <UserObject label="&lt;div style=&quot;font-size: 1px&quot;&gt;&lt;font style=&quot;font-size:19.76px;font-family:Calibri;color:#000000;direction:ltr;letter-spacing:0px;line-height:120%;opacity:1&quot;&gt;contraseña&lt;br/&gt;&lt;/font&gt;&lt;/div&gt;" tags="Diagrama_de_flujo" id="9">
          <mxCell style="verticalAlign=middle;align=center;overflow=width;vsdxID=13;fillColor=#ffffff;gradientColor=none;shape=stencil(UzV2Ls5ILEhVNTIoLinKz04tz0wpyVA1dlE1MsrMy0gtyiwBslSNXVWNndPyi1LTi/JL81Ig/IJEkEoQKze/DGRCBUSfsZ6xJUiTkUElRMDQwADMd4OozsnMQ1INkyRLMR6lGK7AoxbVUFNSTEVzLpCBCJa0zJwcSKgiy6MHI1AIEgXGrgA=);strokeColor=#000000;spacingTop=-1;spacingBottom=-1;spacingLeft=-1;spacingRight=-1;points=[[0.5,0,0],[0.5,0.5,0],[1,0.5,0]];labelBackgroundColor=none;rounded=0;html=1;whiteSpace=wrap;" parent="1" vertex="1">
            <mxGeometry x="770" y="794" width="120" height="32" as="geometry" />
          </mxCell>
        </UserObject>
        <UserObject label="&lt;div style=&quot;font-size: 1px&quot;&gt;&lt;font style=&quot;font-size:14.11px;font-family:Calibri;color:#000000;direction:ltr;letter-spacing:0px;line-height:120%;opacity:1&quot;&gt;¿Datos correcctos?&lt;br/&gt;&lt;/font&gt;&lt;/div&gt;" tags="Fondo" id="10">
          <mxCell style="verticalAlign=middle;align=center;overflow=width;vsdxID=14;fillColor=#ffffff;gradientColor=none;shape=stencil(nZBNDoUgDIRP0z3SeAKf3sNElEYEg/h3+wdpjIaFC3cz9OukDGC16HZWIMUSvBvVTl3QgD+QkqxWnkJUgDVg1TuvBu9W27Gf20QmNbktJRy8V4q0IsXJthDsG2YN2Qd7DS+4fGGz3Bfyc2Z2axT3J3syhjt6zvNS4hMXivUf);strokeColor=#000000;points=[[0.5,1,0],[1,0.5,0],[0.5,0,0],[0,0.5,0]];labelBackgroundColor=none;rounded=0;html=1;whiteSpace=wrap;" parent="1" vertex="1">
            <mxGeometry x="641" y="1375" width="160" height="54" as="geometry" />
          </mxCell>
        </UserObject>
        <UserObject label="&lt;div style=&quot;font-size: 1px&quot;&gt;&lt;p style=&quot;text-align:center;margin-left:0;margin-right:0;margin-top:0px;margin-bottom:11px;text-indent:0;vertical-align:middle;direction:ltr;&quot;&gt;&lt;font style=&quot;font-size:14.11px;font-family:Calibri;color:#000000;direction:ltr;letter-spacing:0px;line-height:108%;opacity:1&quot;&gt;Veriicar si se trata de un profesor, estudiante o no pertenece a la universidad&lt;br/&gt;&lt;/font&gt;&lt;/p&gt;&lt;/div&gt;" tags="Fondo" id="11">
          <mxCell style="verticalAlign=middle;align=center;overflow=width;vsdxID=23;fillColor=#FFFFFF;gradientColor=none;shape=stencil(nZBLDoAgDERP0z3SIyjew0SURgSD+Lu9kMZoXLhwN9O+tukAlrNpJg1SzDH4QW/URgNYgZTkjA4UkwJUgGXng+6DX1zLfmoymdXo17xh5zmRJ6Q42BWCfc2oJfdAr+Yv+AP9Cb7OJ3H/2JG1HNGz/84klThPVCc=);strokeColor=#000000;points=[];labelBackgroundColor=none;rounded=0;html=1;whiteSpace=wrap;" parent="1" vertex="1">
            <mxGeometry x="540" y="1495" width="280" height="54" as="geometry" />
          </mxCell>
        </UserObject>
        <UserObject label="&lt;div style=&quot;font-size: 1px&quot;&gt;&lt;p style=&quot;text-align:center;margin-left:0;margin-right:0;margin-top:0px;margin-bottom:11px;text-indent:0;vertical-align:middle;direction:ltr;&quot;&gt;&lt;font style=&quot;font-size:15.52px;font-family:Calibri;color:#000000;direction:ltr;letter-spacing:0px;line-height:108%;opacity:1&quot;&gt;Ingresar correo y clave&lt;/font&gt;&lt;font style=&quot;font-size:14.11px;font-family:Themed;color:#000000;direction:ltr;letter-spacing:0px;line-height:108%;opacity:1&quot;&gt;&lt;br/&gt;&lt;/font&gt;&lt;/p&gt;&lt;/div&gt;" tags="Fondo" id="12">
          <mxCell style="verticalAlign=middle;align=center;overflow=width;vsdxID=25;fillColor=#FFFFFF;gradientColor=none;shape=stencil(nZBLDoAgDERP0z3SIyjew0SURgSD+Lu9kMZoXLhwN9O+tukAlrNpJg1SzDH4QW/URgNYgZTkjA4UkwJUgGXng+6DX1zLfmoymdXo17xh5zmRJ6Q42BWCfc2oJfdAr+Yv+AP9Cb7OJ3H/2JG1HNGz/84klThPVCc=);strokeColor=#000000;points=[];labelBackgroundColor=none;rounded=0;html=1;whiteSpace=wrap;" parent="1" vertex="1">
            <mxGeometry x="600" y="658" width="160" height="36" as="geometry" />
          </mxCell>
        </UserObject>
        <UserObject label="&lt;div style=&quot;font-size: 1px&quot;&gt;&lt;font style=&quot;font-size:11.29px;font-family:Calibri;color:#000000;direction:ltr;letter-spacing:0px;line-height:120%;opacity:1&quot;&gt;Confirme correo de recuperación&lt;br/&gt;&lt;/font&gt;&lt;/div&gt;" tags="Diagrama_de_flujo" id="13">
          <mxCell style="verticalAlign=middle;align=center;overflow=width;vsdxID=29;fillColor=#ffffff;gradientColor=none;shape=stencil(UzV2Ls5ILEhVNTIoLinKz04tz0wpyVA1dlE1MsrMy0gtyiwBslSNXVWNndPyi1LTi/JL81Ig/IJEkEoQKze/DGRCBUSfsZ6xJUiTkUElRMDQwADMd4OozsnMQ1INkyRLMR6lGK7AoxbVUFNSTEVzLpCBCJa0zJwcSKgiy6MHI1AIEgXGrgA=);strokeColor=#000000;spacingTop=-1;spacingBottom=-1;spacingLeft=-1;spacingRight=-1;points=[[0.5,0,0],[0.5,0.5,0],[1,0.5,0]];labelBackgroundColor=none;rounded=0;html=1;whiteSpace=wrap;" parent="1" vertex="1">
            <mxGeometry x="1041" y="1227" width="120" height="32" as="geometry" />
          </mxCell>
        </UserObject>
        <UserObject label="&lt;div style=&quot;font-size: 1px&quot;&gt;&lt;font style=&quot;font-size:14.11px;font-family:Calibri;color:#000000;direction:ltr;letter-spacing:0px;line-height:120%;opacity:1&quot;&gt;Correo&lt;br/&gt;&lt;/font&gt;&lt;/div&gt;" tags="Fondo" id="14">
          <mxCell style="verticalAlign=middle;align=center;overflow=width;vsdxID=30;fillColor=#ffffff;gradientColor=none;shape=stencil(UzV2Ls5ILEhVNTIoLinKz04tz0wpyVA1dlE1MsrMy0gtyiwBslSNXVWNndPyi1LTi/JL81Ig/IJEkEoQKze/DGRCBUSfAUiHkUElhGdoAOG7QZTmZOYhKbUkQS1MEqYYr1JiVeK1H8hA+DEtMycHEkTI8uhhAhSChKexKwA=);strokeColor=#000000;points=[[0.05,0.5,0],[0.95,0.5,0],[0.45,0.5,0],[0.55,0,0]];labelBackgroundColor=none;rounded=0;html=1;whiteSpace=wrap;" parent="1" vertex="1">
            <mxGeometry x="1031" y="1313" width="140" height="36" as="geometry" />
          </mxCell>
        </UserObject>
        <UserObject label="&lt;div style=&quot;font-size: 1px&quot;&gt;&lt;font style=&quot;font-size:11.29px;font-family:Calibri;color:#000000;direction:ltr;letter-spacing:0px;line-height:120%;opacity:1&quot;&gt;Mensaje enviado con exito&lt;br/&gt;&lt;/font&gt;&lt;/div&gt;" tags="Diagrama_de_flujo" id="15">
          <mxCell style="verticalAlign=middle;align=center;overflow=width;vsdxID=31;fillColor=#ffffff;gradientColor=none;shape=stencil(UzV2Ls5ILEhVNTIoLinKz04tz0wpyVA1dlE1MsrMy0gtyiwBslSNXVWNndPyi1LTi/JL81Ig/IJEkEoQKze/DGRCBUSfsZ6xJUiTkUElRMDQwADMd4OozsnMQ1INkyRLMR6lGK7AoxbVUFNSTEVzLpCBCJa0zJwcSKgiy6MHI1AIEgXGrgA=);strokeColor=#000000;spacingTop=-1;spacingBottom=-1;spacingLeft=-1;spacingRight=-1;points=[[0.5,0,0],[0.5,0.5,0],[1,0.5,0]];labelBackgroundColor=none;rounded=0;html=1;whiteSpace=wrap;" parent="1" vertex="1">
            <mxGeometry x="1059" y="1678" width="120" height="32" as="geometry" />
          </mxCell>
        </UserObject>
        <UserObject label="&lt;div style=&quot;font-size: 1px&quot;&gt;&lt;font style=&quot;font-size:14.11px;font-family:Calibri;color:#000000;direction:ltr;letter-spacing:0px;line-height:120%;opacity:1&quot;&gt;Código&lt;br/&gt;&lt;/font&gt;&lt;/div&gt;" tags="Fondo" id="16">
          <mxCell style="verticalAlign=middle;align=center;overflow=width;vsdxID=32;fillColor=#ffffff;gradientColor=none;shape=stencil(UzV2Ls5ILEhVNTIoLinKz04tz0wpyVA1dlE1MsrMy0gtyiwBslSNXVWNndPyi1LTi/JL81Ig/IJEkEoQKze/DGRCBUSfAUiHkUElhGdoAOG7QZTmZOYhKbUkQS1MEqYYr1JiVeK1H8hA+DEtMycHEkTI8uhhAhSChKexKwA=);strokeColor=#000000;points=[[0.05,0.5,0],[0.95,0.5,0],[0.45,0.5,0],[0.55,0,0]];labelBackgroundColor=none;rounded=0;html=1;whiteSpace=wrap;" parent="1" vertex="1">
            <mxGeometry x="1196" y="1772" width="140" height="36" as="geometry" />
          </mxCell>
        </UserObject>
        <UserObject label="&lt;div style=&quot;font-size: 1px&quot;&gt;&lt;font style=&quot;font-size:11.29px;font-family:Calibri;color:#000000;direction:ltr;letter-spacing:0px;line-height:120%;opacity:1&quot;&gt;Còdigo&lt;br/&gt;&lt;/font&gt;&lt;/div&gt;" tags="Diagrama_de_flujo" id="17">
          <mxCell style="verticalAlign=middle;align=center;overflow=width;vsdxID=33;fillColor=#ffffff;gradientColor=none;shape=stencil(UzV2Ls5ILEhVNTIoLinKz04tz0wpyVA1dlE1MsrMy0gtyiwBslSNXVWNndPyi1LTi/JL81Ig/IJEkEoQKze/DGRCBUSfsZ6xJUiTkUElRMDQwADMd4OozsnMQ1INkyRLMR6lGK7AoxbVUFNSTEVzLpCBCJa0zJwcSKgiy6MHI1AIEgXGrgA=);strokeColor=#000000;spacingTop=-1;spacingBottom=-1;spacingLeft=-1;spacingRight=-1;points=[[0.5,0,0],[0.5,0.5,0],[1,0.5,0]];labelBackgroundColor=none;rounded=0;html=1;whiteSpace=wrap;" parent="1" vertex="1">
            <mxGeometry x="1059" y="1772" width="120" height="32" as="geometry" />
          </mxCell>
        </UserObject>
        <UserObject label="&lt;div style=&quot;font-size: 1px&quot;&gt;&lt;font style=&quot;font-size:11.29px;font-family:Calibri;color:#000000;direction:ltr;letter-spacing:0px;line-height:120%;opacity:1&quot;&gt;Registrarse&lt;br/&gt;&lt;/font&gt;&lt;/div&gt;" tags="Diagrama_de_flujo" id="18">
          <mxCell style="verticalAlign=middle;align=center;overflow=width;vsdxID=46;fillColor=#ffffff;gradientColor=none;shape=stencil(UzV2Ls5ILEhVNTIoLinKz04tz0wpyVA1dlE1MsrMy0gtyiwBslSNXVWNndPyi1LTi/JL81Ig/IJEkEoQKze/DGRCBUSfsZ6xJUiTkUElRMDQwADMd4OozsnMQ1INkyRLMR6lGK7AoxbVUFNSTEVzLpCBCJa0zJwcSKgiy6MHI1AIEgXGrgA=);strokeColor=#000000;spacingTop=-1;spacingBottom=-1;spacingLeft=-1;spacingRight=-1;points=[[0.5,0,0],[0.5,0.5,0],[1,0.5,0]];labelBackgroundColor=none;rounded=0;html=1;whiteSpace=wrap;" parent="1" vertex="1">
            <mxGeometry x="1585" y="1189" width="120" height="32" as="geometry" />
          </mxCell>
        </UserObject>
        <UserObject label="&lt;div style=&quot;font-size: 1px&quot;&gt;&lt;font style=&quot;font-size:11.29px;font-family:Calibri;color:#000000;direction:ltr;letter-spacing:0px;line-height:120%;opacity:1&quot;&gt;Apellidos&lt;br/&gt;&lt;/font&gt;&lt;/div&gt;" tags="Diagrama_de_flujo" id="19">
          <mxCell style="verticalAlign=middle;align=center;overflow=width;vsdxID=50;fillColor=#ffffff;gradientColor=none;shape=stencil(UzV2Ls5ILEhVNTIoLinKz04tz0wpyVA1dlE1MsrMy0gtyiwBslSNXVWNndPyi1LTi/JL81Ig/IJEkEoQKze/DGRCBUSfsZ6xJUiTkUElRMDQwADMd4OozsnMQ1INkyRLMR6lGK7AoxbVUFNSTEVzLpCBCJa0zJwcSKgiy6MHI1AIEgXGrgA=);strokeColor=#000000;spacingTop=-1;spacingBottom=-1;spacingLeft=-1;spacingRight=-1;points=[[0.5,0,0],[0.5,0.5,0],[1,0.5,0]];labelBackgroundColor=none;rounded=0;html=1;whiteSpace=wrap;" parent="1" vertex="1">
            <mxGeometry x="1425" y="1447" width="120" height="32" as="geometry" />
          </mxCell>
        </UserObject>
        <UserObject label="&lt;div style=&quot;font-size: 1px&quot;&gt;&lt;font style=&quot;font-size:11.29px;font-family:Calibri;color:#000000;direction:ltr;letter-spacing:0px;line-height:120%;opacity:1&quot;&gt;nombres&lt;br/&gt;&lt;/font&gt;&lt;/div&gt;" tags="Diagrama_de_flujo" id="20">
          <mxCell style="verticalAlign=middle;align=center;overflow=width;vsdxID=51;fillColor=#ffffff;gradientColor=none;shape=stencil(UzV2Ls5ILEhVNTIoLinKz04tz0wpyVA1dlE1MsrMy0gtyiwBslSNXVWNndPyi1LTi/JL81Ig/IJEkEoQKze/DGRCBUSfsZ6xJUiTkUElRMDQwADMd4OozsnMQ1INkyRLMR6lGK7AoxbVUFNSTEVzLpCBCJa0zJwcSKgiy6MHI1AIEgXGrgA=);strokeColor=#000000;spacingTop=-1;spacingBottom=-1;spacingLeft=-1;spacingRight=-1;points=[[0.5,0,0],[0.5,0.5,0],[1,0.5,0]];labelBackgroundColor=none;rounded=0;html=1;whiteSpace=wrap;" parent="1" vertex="1">
            <mxGeometry x="1585" y="1381" width="120" height="32" as="geometry" />
          </mxCell>
        </UserObject>
        <UserObject label="&lt;div style=&quot;font-size: 1px&quot;&gt;&lt;font style=&quot;font-size:11.29px;font-family:Calibri;color:#000000;direction:ltr;letter-spacing:0px;line-height:120%;opacity:1&quot;&gt;USM&lt;br/&gt;&lt;/font&gt;&lt;/div&gt;" tags="Diagrama_de_flujo" id="21">
          <mxCell style="verticalAlign=middle;align=center;overflow=width;vsdxID=52;fillColor=#ffffff;gradientColor=none;shape=stencil(UzV2Ls5ILEhVNTIoLinKz04tz0wpyVA1dlE1MsrMy0gtyiwBslSNXVWNndPyi1LTi/JL81Ig/IJEkEoQKze/DGRCBUSfsZ6xJUiTkUElRMDQwADMd4OozsnMQ1INkyRLMR6lGK7AoxbVUFNSTEVzLpCBCJa0zJwcSKgiy6MHI1AIEgXGrgA=);strokeColor=#000000;spacingTop=-1;spacingBottom=-1;spacingLeft=-1;spacingRight=-1;points=[[0.5,0,0],[0.5,0.5,0],[1,0.5,0]];labelBackgroundColor=none;rounded=0;html=1;whiteSpace=wrap;" parent="1" vertex="1">
            <mxGeometry x="1585" y="1315" width="120" height="32" as="geometry" />
          </mxCell>
        </UserObject>
        <UserObject label="&lt;div style=&quot;font-size: 1px&quot;&gt;&lt;font style=&quot;font-size:11.29px;font-family:Calibri;color:#000000;direction:ltr;letter-spacing:0px;line-height:120%;opacity:1&quot;&gt;Fecha de nacimiento&lt;br/&gt;&lt;/font&gt;&lt;/div&gt;" tags="Diagrama_de_flujo" id="22">
          <mxCell style="verticalAlign=middle;align=center;overflow=width;vsdxID=53;fillColor=#ffffff;gradientColor=none;shape=stencil(UzV2Ls5ILEhVNTIoLinKz04tz0wpyVA1dlE1MsrMy0gtyiwBslSNXVWNndPyi1LTi/JL81Ig/IJEkEoQKze/DGRCBUSfsZ6xJUiTkUElRMDQwADMd4OozsnMQ1INkyRLMR6lGK7AoxbVUFNSTEVzLpCBCJa0zJwcSKgiy6MHI1AIEgXGrgA=);strokeColor=#000000;spacingTop=-1;spacingBottom=-1;spacingLeft=-1;spacingRight=-1;points=[[0.5,0,0],[0.5,0.5,0],[1,0.5,0]];labelBackgroundColor=none;rounded=0;html=1;whiteSpace=wrap;" parent="1" vertex="1">
            <mxGeometry x="1575" y="1518" width="120" height="32" as="geometry" />
          </mxCell>
        </UserObject>
        <UserObject label="&lt;div style=&quot;font-size: 1px&quot;&gt;&lt;font style=&quot;font-size:11.29px;font-family:Calibri;color:#000000;direction:ltr;letter-spacing:0px;line-height:120%;opacity:1&quot;&gt;Correo electronico&lt;br/&gt;&lt;/font&gt;&lt;/div&gt;" tags="Diagrama_de_flujo" id="23">
          <mxCell style="verticalAlign=middle;align=center;overflow=width;vsdxID=54;fillColor=#ffffff;gradientColor=none;shape=stencil(UzV2Ls5ILEhVNTIoLinKz04tz0wpyVA1dlE1MsrMy0gtyiwBslSNXVWNndPyi1LTi/JL81Ig/IJEkEoQKze/DGRCBUSfsZ6xJUiTkUElRMDQwADMd4OozsnMQ1INkyRLMR6lGK7AoxbVUFNSTEVzLpCBCJa0zJwcSKgiy6MHI1AIEgXGrgA=);strokeColor=#000000;spacingTop=-1;spacingBottom=-1;spacingLeft=-1;spacingRight=-1;points=[[0.5,0,0],[0.5,0.5,0],[1,0.5,0]];labelBackgroundColor=none;rounded=0;html=1;whiteSpace=wrap;" parent="1" vertex="1">
            <mxGeometry x="1425" y="1592" width="120" height="32" as="geometry" />
          </mxCell>
        </UserObject>
        <UserObject label="&lt;div style=&quot;font-size: 1px&quot;&gt;&lt;font style=&quot;font-size:11.29px;font-family:Calibri;color:#000000;direction:ltr;letter-spacing:0px;line-height:120%;opacity:1&quot;&gt;Cedula&lt;br/&gt;&lt;/font&gt;&lt;/div&gt;" tags="Diagrama_de_flujo" id="24">
          <mxCell style="verticalAlign=middle;align=center;overflow=width;vsdxID=55;fillColor=#ffffff;gradientColor=none;shape=stencil(UzV2Ls5ILEhVNTIoLinKz04tz0wpyVA1dlE1MsrMy0gtyiwBslSNXVWNndPyi1LTi/JL81Ig/IJEkEoQKze/DGRCBUSfsZ6xJUiTkUElRMDQwADMd4OozsnMQ1INkyRLMR6lGK7AoxbVUFNSTEVzLpCBCJa0zJwcSKgiy6MHI1AIEgXGrgA=);strokeColor=#000000;spacingTop=-1;spacingBottom=-1;spacingLeft=-1;spacingRight=-1;points=[[0.5,0,0],[0.5,0.5,0],[1,0.5,0]];labelBackgroundColor=none;rounded=0;html=1;whiteSpace=wrap;" parent="1" vertex="1">
            <mxGeometry x="1597" y="1659" width="120" height="32" as="geometry" />
          </mxCell>
        </UserObject>
        <UserObject label="&lt;div style=&quot;font-size: 1px&quot;&gt;&lt;font style=&quot;font-size:11.29px;font-family:Calibri;color:#000000;direction:ltr;letter-spacing:0px;line-height:120%;opacity:1&quot;&gt;Telefono&lt;br/&gt;&lt;/font&gt;&lt;/div&gt;" tags="Diagrama_de_flujo" id="25">
          <mxCell style="verticalAlign=middle;align=center;overflow=width;vsdxID=56;fillColor=#ffffff;gradientColor=none;shape=stencil(UzV2Ls5ILEhVNTIoLinKz04tz0wpyVA1dlE1MsrMy0gtyiwBslSNXVWNndPyi1LTi/JL81Ig/IJEkEoQKze/DGRCBUSfsZ6xJUiTkUElRMDQwADMd4OozsnMQ1INkyRLMR6lGK7AoxbVUFNSTEVzLpCBCJa0zJwcSKgiy6MHI1AIEgXGrgA=);strokeColor=#000000;spacingTop=-1;spacingBottom=-1;spacingLeft=-1;spacingRight=-1;points=[[0.5,0,0],[0.5,0.5,0],[1,0.5,0]];labelBackgroundColor=none;rounded=0;html=1;whiteSpace=wrap;" parent="1" vertex="1">
            <mxGeometry x="1425" y="1728" width="120" height="32" as="geometry" />
          </mxCell>
        </UserObject>
        <UserObject label="&lt;div style=&quot;font-size: 1px&quot;&gt;&lt;font style=&quot;font-size:11.29px;font-family:Calibri;color:#000000;direction:ltr;letter-spacing:0px;line-height:120%;opacity:1&quot;&gt;Usuario&lt;br/&gt;&lt;/font&gt;&lt;/div&gt;" tags="Diagrama_de_flujo" id="26">
          <mxCell style="verticalAlign=middle;align=center;overflow=width;vsdxID=57;fillColor=#ffffff;gradientColor=none;shape=stencil(UzV2Ls5ILEhVNTIoLinKz04tz0wpyVA1dlE1MsrMy0gtyiwBslSNXVWNndPyi1LTi/JL81Ig/IJEkEoQKze/DGRCBUSfsZ6xJUiTkUElRMDQwADMd4OozsnMQ1INkyRLMR6lGK7AoxbVUFNSTEVzLpCBCJa0zJwcSKgiy6MHI1AIEgXGrgA=);strokeColor=#000000;spacingTop=-1;spacingBottom=-1;spacingLeft=-1;spacingRight=-1;points=[[0.5,0,0],[0.5,0.5,0],[1,0.5,0]];labelBackgroundColor=none;rounded=0;html=1;whiteSpace=wrap;" parent="1" vertex="1">
            <mxGeometry x="1577" y="1794" width="120" height="32" as="geometry" />
          </mxCell>
        </UserObject>
        <UserObject label="&lt;div style=&quot;font-size: 1px&quot;&gt;&lt;font style=&quot;font-size:11.29px;font-family:Calibri;color:#000000;direction:ltr;letter-spacing:0px;line-height:120%;opacity:1&quot;&gt;Contraseña&lt;br/&gt;&lt;/font&gt;&lt;/div&gt;" tags="Diagrama_de_flujo" id="27">
          <mxCell style="verticalAlign=middle;align=center;overflow=width;vsdxID=58;fillColor=#ffffff;gradientColor=none;shape=stencil(UzV2Ls5ILEhVNTIoLinKz04tz0wpyVA1dlE1MsrMy0gtyiwBslSNXVWNndPyi1LTi/JL81Ig/IJEkEoQKze/DGRCBUSfsZ6xJUiTkUElRMDQwADMd4OozsnMQ1INkyRLMR6lGK7AoxbVUFNSTEVzLpCBCJa0zJwcSKgiy6MHI1AIEgXGrgA=);strokeColor=#000000;spacingTop=-1;spacingBottom=-1;spacingLeft=-1;spacingRight=-1;points=[[0.5,0,0],[0.5,0.5,0],[1,0.5,0]];labelBackgroundColor=none;rounded=0;html=1;whiteSpace=wrap;" parent="1" vertex="1">
            <mxGeometry x="1425" y="1868" width="120" height="32" as="geometry" />
          </mxCell>
        </UserObject>
        <UserObject label="&lt;div style=&quot;font-size: 1px&quot;&gt;&lt;font style=&quot;font-size:14.11px;font-family:Calibri;color:#000000;direction:ltr;letter-spacing:0px;line-height:120%;opacity:1&quot;&gt;Correo&lt;br/&gt;&lt;/font&gt;&lt;/div&gt;" tags="Fondo" id="28">
          <mxCell style="verticalAlign=middle;align=center;overflow=width;vsdxID=59;fillColor=#ffffff;gradientColor=none;shape=stencil(UzV2Ls5ILEhVNTIoLinKz04tz0wpyVA1dlE1MsrMy0gtyiwBslSNXVWNndPyi1LTi/JL81Ig/IJEkEoQKze/DGRCBUSfAUiHkUElhGdoAOG7QZTmZOYhKbUkQS1MEqYYr1JiVeK1H8hA+DEtMycHEkTI8uhhAhSChKexKwA=);strokeColor=#000000;points=[[0.05,0.5,0],[0.95,0.5,0],[0.45,0.5,0],[0.55,0,0]];labelBackgroundColor=none;rounded=0;html=1;whiteSpace=wrap;" parent="1" vertex="1">
            <mxGeometry x="1587" y="1592" width="140" height="36" as="geometry" />
          </mxCell>
        </UserObject>
        <UserObject label="&lt;div style=&quot;font-size: 1px&quot;&gt;&lt;font style=&quot;font-size:14.11px;font-family:Calibri;color:#000000;direction:ltr;letter-spacing:0px;line-height:120%;opacity:1&quot;&gt;Cédula&lt;br/&gt;&lt;/font&gt;&lt;/div&gt;" tags="Fondo" id="29">
          <mxCell style="verticalAlign=middle;align=center;overflow=width;vsdxID=60;fillColor=#ffffff;gradientColor=none;shape=stencil(UzV2Ls5ILEhVNTIoLinKz04tz0wpyVA1dlE1MsrMy0gtyiwBslSNXVWNndPyi1LTi/JL81Ig/IJEkEoQKze/DGRCBUSfAUiHkUElhGdoAOG7QZTmZOYhKbUkQS1MEqYYr1JiVeK1H8hA+DEtMycHEkTI8uhhAhSChKexKwA=);strokeColor=#000000;points=[[0.05,0.5,0],[0.95,0.5,0],[0.45,0.5,0],[0.55,0,0]];labelBackgroundColor=none;rounded=0;html=1;whiteSpace=wrap;" parent="1" vertex="1">
            <mxGeometry x="1425" y="1657" width="140" height="36" as="geometry" />
          </mxCell>
        </UserObject>
        <UserObject label="&lt;div style=&quot;font-size: 1px&quot;&gt;&lt;font style=&quot;font-size:14.11px;font-family:Calibri;color:#000000;direction:ltr;letter-spacing:0px;line-height:120%;opacity:1&quot;&gt;teléfono&lt;br/&gt;&lt;/font&gt;&lt;/div&gt;" tags="Fondo" id="30">
          <mxCell style="verticalAlign=middle;align=center;overflow=width;vsdxID=61;fillColor=#ffffff;gradientColor=none;shape=stencil(UzV2Ls5ILEhVNTIoLinKz04tz0wpyVA1dlE1MsrMy0gtyiwBslSNXVWNndPyi1LTi/JL81Ig/IJEkEoQKze/DGRCBUSfAUiHkUElhGdoAOG7QZTmZOYhKbUkQS1MEqYYr1JiVeK1H8hA+DEtMycHEkTI8uhhAhSChKexKwA=);strokeColor=#000000;points=[[0.05,0.5,0],[0.95,0.5,0],[0.45,0.5,0],[0.55,0,0]];labelBackgroundColor=none;rounded=0;html=1;whiteSpace=wrap;" parent="1" vertex="1">
            <mxGeometry x="1577" y="1728" width="140" height="36" as="geometry" />
          </mxCell>
        </UserObject>
        <UserObject label="&lt;div style=&quot;font-size: 1px&quot;&gt;&lt;font style=&quot;font-size:14.11px;font-family:Calibri;color:#000000;direction:ltr;letter-spacing:0px;line-height:120%;opacity:1&quot;&gt;usuario&lt;br/&gt;&lt;/font&gt;&lt;/div&gt;" tags="Fondo" id="31">
          <mxCell style="verticalAlign=middle;align=center;overflow=width;vsdxID=62;fillColor=#ffffff;gradientColor=none;shape=stencil(UzV2Ls5ILEhVNTIoLinKz04tz0wpyVA1dlE1MsrMy0gtyiwBslSNXVWNndPyi1LTi/JL81Ig/IJEkEoQKze/DGRCBUSfAUiHkUElhGdoAOG7QZTmZOYhKbUkQS1MEqYYr1JiVeK1H8hA+DEtMycHEkTI8uhhAhSChKexKwA=);strokeColor=#000000;points=[[0.05,0.5,0],[0.95,0.5,0],[0.45,0.5,0],[0.55,0,0]];labelBackgroundColor=none;rounded=0;html=1;whiteSpace=wrap;" parent="1" vertex="1">
            <mxGeometry x="1425" y="1794" width="140" height="36" as="geometry" />
          </mxCell>
        </UserObject>
        <UserObject label="&lt;div style=&quot;font-size: 1px&quot;&gt;&lt;font style=&quot;font-size:14.11px;font-family:Calibri;color:#000000;direction:ltr;letter-spacing:0px;line-height:120%;opacity:1&quot;&gt;d/m/a&lt;br/&gt;&lt;/font&gt;&lt;/div&gt;" tags="Fondo" id="32">
          <mxCell style="verticalAlign=middle;align=center;overflow=width;vsdxID=63;fillColor=#ffffff;gradientColor=none;shape=stencil(UzV2Ls5ILEhVNTIoLinKz04tz0wpyVA1dlE1MsrMy0gtyiwBslSNXVWNndPyi1LTi/JL81Ig/IJEkEoQKze/DGRCBUSfAUiHkUElhGdoAOG7QZTmZOYhKbUkQS1MEqYYr1JiVeK1H8hA+DEtMycHEkTI8uhhAhSChKexKwA=);strokeColor=#000000;points=[[0.05,0.5,0],[0.95,0.5,0],[0.45,0.5,0],[0.55,0,0]];labelBackgroundColor=none;rounded=0;html=1;whiteSpace=wrap;" parent="1" vertex="1">
            <mxGeometry x="1415" y="1518" width="140" height="36" as="geometry" />
          </mxCell>
        </UserObject>
        <UserObject label="&lt;div style=&quot;font-size: 1px&quot;&gt;&lt;font style=&quot;font-size:14.11px;font-family:Calibri;color:#000000;direction:ltr;letter-spacing:0px;line-height:120%;opacity:1&quot;&gt;nombres&lt;br/&gt;&lt;/font&gt;&lt;/div&gt;" tags="Fondo" id="33">
          <mxCell style="verticalAlign=middle;align=center;overflow=width;vsdxID=64;fillColor=#ffffff;gradientColor=none;shape=stencil(UzV2Ls5ILEhVNTIoLinKz04tz0wpyVA1dlE1MsrMy0gtyiwBslSNXVWNndPyi1LTi/JL81Ig/IJEkEoQKze/DGRCBUSfAUiHkUElhGdoAOG7QZTmZOYhKbUkQS1MEqYYr1JiVeK1H8hA+DEtMycHEkTI8uhhAhSChKexKwA=);strokeColor=#000000;points=[[0.05,0.5,0],[0.95,0.5,0],[0.45,0.5,0],[0.55,0,0]];labelBackgroundColor=none;rounded=0;html=1;whiteSpace=wrap;" parent="1" vertex="1">
            <mxGeometry x="1415" y="1381" width="140" height="36" as="geometry" />
          </mxCell>
        </UserObject>
        <UserObject label="&lt;div style=&quot;font-size: 1px&quot;&gt;&lt;font style=&quot;font-size:14.11px;font-family:Calibri;color:#000000;direction:ltr;letter-spacing:0px;line-height:120%;opacity:1&quot;&gt;Apellidos&lt;br/&gt;&lt;/font&gt;&lt;/div&gt;" tags="Fondo" id="34">
          <mxCell style="verticalAlign=middle;align=center;overflow=width;vsdxID=65;fillColor=#ffffff;gradientColor=none;shape=stencil(UzV2Ls5ILEhVNTIoLinKz04tz0wpyVA1dlE1MsrMy0gtyiwBslSNXVWNndPyi1LTi/JL81Ig/IJEkEoQKze/DGRCBUSfAUiHkUElhGdoAOG7QZTmZOYhKbUkQS1MEqYYr1JiVeK1H8hA+DEtMycHEkTI8uhhAhSChKexKwA=);strokeColor=#000000;points=[[0.05,0.5,0],[0.95,0.5,0],[0.45,0.5,0],[0.55,0,0]];labelBackgroundColor=none;rounded=0;html=1;whiteSpace=wrap;" parent="1" vertex="1">
            <mxGeometry x="1575" y="1447" width="140" height="36" as="geometry" />
          </mxCell>
        </UserObject>
        <UserObject label="" tags="Conector" id="185">
          <mxCell style="vsdxID=76;edgeStyle=none;startArrow=none;endArrow=block;startSize=5;endSize=5;strokeColor=#000000;spacingTop=0;spacingBottom=0;spacingLeft=0;spacingRight=0;verticalAlign=middle;html=1;labelBackgroundColor=#ffffff;rounded=0;" parent="1" edge="1">
            <mxGeometry relative="1" as="geometry">
              <mxPoint x="10" y="10" as="offset" />
              <Array as="points" />
              <mxPoint x="1845" y="2104" as="sourcePoint" />
              <mxPoint x="1845" y="2104" as="targetPoint" />
            </mxGeometry>
          </mxCell>
        </UserObject>
        <UserObject label="" tags="Conector" id="186">
          <mxCell style="vsdxID=84;edgeStyle=none;startArrow=none;endArrow=block;startSize=5;endSize=5;strokeColor=#000000;spacingTop=0;spacingBottom=0;spacingLeft=0;spacingRight=0;verticalAlign=middle;html=1;labelBackgroundColor=#ffffff;rounded=0;" parent="1" edge="1">
            <mxGeometry relative="1" as="geometry">
              <mxPoint x="10" y="-10" as="offset" />
              <Array as="points" />
              <mxPoint x="1101" y="1227" as="sourcePoint" />
              <mxPoint x="1101" y="1227" as="targetPoint" />
            </mxGeometry>
          </mxCell>
        </UserObject>
        <UserObject label="&lt;div style=&quot;font-size: 1px&quot;&gt;&lt;font style=&quot;font-size:14.11px;font-family:Calibri;color:#000000;direction:ltr;letter-spacing:0px;line-height:120%;opacity:1&quot;&gt;¿registrarse o iniciar sesión?&lt;br/&gt;&lt;/font&gt;&lt;/div&gt;" tags="Fondo" id="35">
          <mxCell style="verticalAlign=middle;align=center;overflow=width;vsdxID=90;fillColor=#ffffff;gradientColor=none;shape=stencil(nZBNDoUgDIRP0z3SeAKf3sNElEYEg/h3+wdpjIaFC3cz9OukDGC16HZWIMUSvBvVTl3QgD+QkqxWnkJUgDVg1TuvBu9W27Gf20QmNbktJRy8V4q0IsXJthDsG2YN2Qd7DS+4fGGz3Bfyc2Z2axT3J3syhjt6zvNS4hMXivUf);strokeColor=#000000;points=[[0.5,1,0],[1,0.5,0],[0.5,0,0],[0,0.5,0]];labelBackgroundColor=none;rounded=0;html=1;whiteSpace=wrap;" parent="1" vertex="1">
            <mxGeometry x="1527" y="2229" width="160" height="74" as="geometry" />
          </mxCell>
        </UserObject>
        <UserObject label="&lt;div style=&quot;font-size: 1px&quot;&gt;&lt;p style=&quot;text-align:center;margin-left:0;margin-right:0;margin-top:0px;margin-bottom:11px;text-indent:0;vertical-align:middle;direction:ltr;&quot;&gt;&lt;font style=&quot;font-size:15.52px;font-family:Calibri;color:#000000;direction:ltr;letter-spacing:0px;line-height:108%;opacity:1&quot;&gt;Ingresar datos de registro&lt;/font&gt;&lt;font style=&quot;font-size:14.11px;font-family:Themed;color:#000000;direction:ltr;letter-spacing:0px;line-height:108%;opacity:1&quot;&gt;&lt;br/&gt;&lt;/font&gt;&lt;/p&gt;&lt;/div&gt;" tags="Fondo" id="36">
          <mxCell style="verticalAlign=middle;align=center;overflow=width;vsdxID=93;fillColor=#FFFFFF;gradientColor=none;shape=stencil(nZBLDoAgDERP0z3SIyjew0SURgSD+Lu9kMZoXLhwN9O+tukAlrNpJg1SzDH4QW/URgNYgZTkjA4UkwJUgGXng+6DX1zLfmoymdXo17xh5zmRJ6Q42BWCfc2oJfdAr+Yv+AP9Cb7OJ3H/2JG1HNGz/84klThPVCc=);strokeColor=#000000;points=[];labelBackgroundColor=none;rounded=0;html=1;whiteSpace=wrap;" parent="1" vertex="1">
            <mxGeometry x="1540" y="1248" width="210" height="36" as="geometry" />
          </mxCell>
        </UserObject>
        <UserObject label="&lt;div style=&quot;font-size: 1px&quot;&gt;&lt;p style=&quot;text-align:center;margin-left:0;margin-right:0;margin-top:0px;margin-bottom:11px;text-indent:0;vertical-align:middle;direction:ltr;&quot;&gt;&lt;font style=&quot;font-size:15.52px;font-family:Calibri;color:#000000;direction:ltr;letter-spacing:0px;line-height:108%;opacity:1&quot;&gt;Se envia un código de confirmación al correo&lt;/font&gt;&lt;font style=&quot;font-size:14.11px;font-family:Themed;color:#000000;direction:ltr;letter-spacing:0px;line-height:108%;opacity:1&quot;&gt;&lt;br/&gt;&lt;/font&gt;&lt;/p&gt;&lt;/div&gt;" tags="Fondo" id="37">
          <mxCell style="verticalAlign=middle;align=center;overflow=width;vsdxID=95;fillColor=#FFFFFF;gradientColor=none;shape=stencil(nZBLDoAgDERP0z3SIyjew0SURgSD+Lu9kMZoXLhwN9O+tukAlrNpJg1SzDH4QW/URgNYgZTkjA4UkwJUgGXng+6DX1zLfmoymdXo17xh5zmRJ6Q42BWCfc2oJfdAr+Yv+AP9Cb7OJ3H/2JG1HNGz/84klThPVCc=);strokeColor=#000000;points=[];labelBackgroundColor=none;rounded=0;html=1;whiteSpace=wrap;" parent="1" vertex="1">
            <mxGeometry x="1038" y="1612" width="161" height="41" as="geometry" />
          </mxCell>
        </UserObject>
        <UserObject label="&lt;div style=&quot;font-size: 1px&quot;&gt;&lt;font style=&quot;font-size:14.11px;font-family:Calibri;color:#000000;direction:ltr;letter-spacing:0px;line-height:120%;opacity:1&quot;&gt;usuario&lt;br/&gt;&lt;/font&gt;&lt;/div&gt;" tags="Fondo" id="38">
          <mxCell style="verticalAlign=middle;align=center;overflow=width;vsdxID=96;fillColor=#ffffff;gradientColor=none;shape=stencil(UzV2Ls5ILEhVNTIoLinKz04tz0wpyVA1dlE1MsrMy0gtyiwBslSNXVWNndPyi1LTi/JL81Ig/IJEkEoQKze/DGRCBUSfAUiHkUElhGdoAOG7QZTmZOYhKbUkQS1MEqYYr1JiVeK1H8hA+DEtMycHEkTI8uhhAhSChKexKwA=);strokeColor=#000000;points=[[0.05,0.5,0],[0.95,0.5,0],[0.45,0.5,0],[0.55,0,0]];labelBackgroundColor=none;rounded=0;html=1;whiteSpace=wrap;" parent="1" vertex="1">
            <mxGeometry x="1577" y="1868" width="140" height="36" as="geometry" />
          </mxCell>
        </UserObject>
        <UserObject label="&lt;div style=&quot;font-size: 1px&quot;&gt;&lt;p style=&quot;text-align:center;margin-left:0;margin-right:0;margin-top:0px;margin-bottom:11px;text-indent:0;vertical-align:middle;direction:ltr;&quot;&gt;&lt;font style=&quot;font-size:15.52px;font-family:Calibri;color:#000000;direction:ltr;letter-spacing:0px;line-height:108%;opacity:1&quot;&gt;Se enviará un código de confirmación al correo&lt;/font&gt;&lt;font style=&quot;font-size:14.11px;font-family:Themed;color:#000000;direction:ltr;letter-spacing:0px;line-height:108%;opacity:1&quot;&gt;&lt;br/&gt;&lt;/font&gt;&lt;/p&gt;&lt;/div&gt;" tags="Fondo" id="39">
          <mxCell style="verticalAlign=middle;align=center;overflow=width;vsdxID=100;fillColor=#FFFFFF;gradientColor=none;shape=stencil(nZBLDoAgDERP0z3SIyjew0SURgSD+Lu9kMZoXLhwN9O+tukAlrNpJg1SzDH4QW/URgNYgZTkjA4UkwJUgGXng+6DX1zLfmoymdXo17xh5zmRJ6Q42BWCfc2oJfdAr+Yv+AP9Cb7OJ3H/2JG1HNGz/84klThPVCc=);strokeColor=#000000;points=[];labelBackgroundColor=none;rounded=0;html=1;whiteSpace=wrap;" parent="1" vertex="1">
            <mxGeometry x="1524" y="2421" width="161" height="41" as="geometry" />
          </mxCell>
        </UserObject>
        <UserObject label="&lt;div style=&quot;font-size: 1px&quot;&gt;&lt;font style=&quot;font-size:14.11px;font-family:Calibri;color:#000000;direction:ltr;letter-spacing:0px;line-height:120%;opacity:1&quot;&gt;Código de confirmación&lt;br/&gt;&lt;/font&gt;&lt;/div&gt;" tags="Fondo" id="40">
          <mxCell style="verticalAlign=middle;align=center;overflow=width;vsdxID=102;fillColor=#ffffff;gradientColor=none;shape=stencil(UzV2Ls5ILEhVNTIoLinKz04tz0wpyVA1dlE1MsrMy0gtyiwBslSNXVWNndPyi1LTi/JL81Ig/IJEkEoQKze/DGRCBUSfAUiHkUElhGdoAOG7QZTmZOYhKbUkQS1MEqYYr1JiVeK1H8hA+DEtMycHEkTI8uhhAhSChKexKwA=);strokeColor=#000000;points=[[0.05,0.5,0],[0.95,0.5,0],[0.45,0.5,0],[0.55,0,0]];labelBackgroundColor=none;rounded=0;html=1;whiteSpace=wrap;" parent="1" vertex="1">
            <mxGeometry x="1535" y="2571" width="140" height="36" as="geometry" />
          </mxCell>
        </UserObject>
        <UserObject label="&lt;div style=&quot;font-size: 1px&quot;&gt;&lt;font style=&quot;font-size:11.29px;font-family:Calibri;color:#000000;direction:ltr;letter-spacing:0px;line-height:120%;opacity:1&quot;&gt;Ingrese el código de confirmación&lt;br/&gt;&lt;/font&gt;&lt;/div&gt;" tags="Diagrama_de_flujo" id="41">
          <mxCell style="verticalAlign=middle;align=center;overflow=width;vsdxID=104;fillColor=#ffffff;gradientColor=none;shape=stencil(UzV2Ls5ILEhVNTIoLinKz04tz0wpyVA1dlE1MsrMy0gtyiwBslSNXVWNndPyi1LTi/JL81Ig/IJEkEoQKze/DGRCBUSfsZ6xJUiTkUElRMDQwADMd4OozsnMQ1INkyRLMR6lGK7AoxbVUFNSTEVzLpCBCJa0zJwcSKgiy6MHI1AIEgXGrgA=);strokeColor=#000000;spacingTop=-1;spacingBottom=-1;spacingLeft=-1;spacingRight=-1;points=[[0.5,0,0],[0.5,0.5,0],[1,0.5,0]];labelBackgroundColor=none;rounded=0;html=1;whiteSpace=wrap;" parent="1" vertex="1">
            <mxGeometry x="1545" y="2500" width="120" height="32" as="geometry" />
          </mxCell>
        </UserObject>
        <UserObject label="&lt;div style=&quot;font-size: 1px&quot;&gt;&lt;font style=&quot;font-size:14.11px;font-family:Calibri;color:#000000;direction:ltr;letter-spacing:0px;line-height:120%;opacity:1&quot;&gt;¿Código correcto?&lt;br/&gt;&lt;/font&gt;&lt;/div&gt;" tags="Fondo" id="42">
          <mxCell style="verticalAlign=middle;align=center;overflow=width;vsdxID=106;fillColor=#ffffff;gradientColor=none;shape=stencil(nZBNDoUgDIRP0z3SeAKf3sNElEYEg/h3+wdpjIaFC3cz9OukDGC16HZWIMUSvBvVTl3QgD+QkqxWnkJUgDVg1TuvBu9W27Gf20QmNbktJRy8V4q0IsXJthDsG2YN2Qd7DS+4fGGz3Bfyc2Z2axT3J3syhjt6zvNS4hMXivUf);strokeColor=#000000;points=[[0.5,1,0],[1,0.5,0],[0.5,0,0],[0,0.5,0]];labelBackgroundColor=none;rounded=0;html=1;whiteSpace=wrap;" parent="1" vertex="1">
            <mxGeometry x="1520" y="2762" width="160" height="54" as="geometry" />
          </mxCell>
        </UserObject>
        <UserObject label="&lt;div style=&quot;font-size: 1px&quot;&gt;&lt;font style=&quot;font-size:11.29px;font-family:Calibri;color:#000000;direction:ltr;letter-spacing:0px;line-height:120%;opacity:1&quot;&gt;Reenviar código&lt;br/&gt;&lt;/font&gt;&lt;/div&gt;" tags="Diagrama_de_flujo" id="43">
          <mxCell style="verticalAlign=middle;align=center;overflow=width;vsdxID=111;fillColor=#ffffff;gradientColor=none;shape=stencil(UzV2Ls5ILEhVNTIoLinKz04tz0wpyVA1dlE1MsrMy0gtyiwBslSNXVWNndPyi1LTi/JL81Ig/IJEkEoQKze/DGRCBUSfsZ6xJUiTkUElRMDQwADMd4OozsnMQ1INkyRLMR6lGK7AoxbVUFNSTEVzLpCBCJa0zJwcSKgiy6MHI1AIEgXGrgA=);strokeColor=#000000;spacingTop=-1;spacingBottom=-1;spacingLeft=-1;spacingRight=-1;points=[[0.5,0,0],[0.5,0.5,0],[1,0.5,0]];labelBackgroundColor=none;rounded=0;html=1;whiteSpace=wrap;" parent="1" vertex="1">
            <mxGeometry x="1860" y="2773" width="120" height="32" as="geometry" />
          </mxCell>
        </UserObject>
        <UserObject label="&lt;div style=&quot;font-size: 1px&quot;&gt;&lt;font style=&quot;font-size:14.11px;font-family:Calibri;color:#000000;direction:ltr;letter-spacing:0px;line-height:120%;opacity:1&quot;&gt;¿Reenviar código?&lt;br/&gt;&lt;/font&gt;&lt;/div&gt;" tags="Fondo" id="44">
          <mxCell style="verticalAlign=middle;align=center;overflow=width;vsdxID=112;fillColor=#ffffff;gradientColor=none;shape=stencil(nZBNDoUgDIRP0z3SeAKf3sNElEYEg/h3+wdpjIaFC3cz9OukDGC16HZWIMUSvBvVTl3QgD+QkqxWnkJUgDVg1TuvBu9W27Gf20QmNbktJRy8V4q0IsXJthDsG2YN2Qd7DS+4fGGz3Bfyc2Z2axT3J3syhjt6zvNS4hMXivUf);strokeColor=#000000;points=[[0.5,1,0],[1,0.5,0],[0.5,0,0],[0,0.5,0]];labelBackgroundColor=none;rounded=0;html=1;whiteSpace=wrap;" parent="1" vertex="1">
            <mxGeometry x="1840" y="2894" width="160" height="54" as="geometry" />
          </mxCell>
        </UserObject>
        <UserObject label="&lt;div style=&quot;font-size: 1px&quot;&gt;&lt;p style=&quot;text-align:center;margin-left:0;margin-right:0;margin-top:0px;margin-bottom:11px;text-indent:0;vertical-align:middle;direction:ltr;&quot;&gt;&lt;font style=&quot;font-size:15.52px;font-family:Calibri;color:#000000;direction:ltr;letter-spacing:0px;line-height:108%;opacity:1&quot;&gt;Se ingresan los datos de registro a la base de datos, se crea la cuenta, y está listo para iniciar sesión&lt;/font&gt;&lt;font style=&quot;font-size:14.11px;font-family:Themed;color:#000000;direction:ltr;letter-spacing:0px;line-height:108%;opacity:1&quot;&gt;&lt;br/&gt;&lt;/font&gt;&lt;/p&gt;&lt;/div&gt;" tags="Fondo" id="45">
          <mxCell style="verticalAlign=middle;align=center;overflow=width;vsdxID=119;fillColor=#FFFFFF;gradientColor=none;shape=stencil(nZBLDoAgDERP0z3SIyjew0SURgSD+Lu9kMZoXLhwN9O+tukAlrNpJg1SzDH4QW/URgNYgZTkjA4UkwJUgGXng+6DX1zLfmoymdXo17xh5zmRJ6Q42BWCfc2oJfdAr+Yv+AP9Cb7OJ3H/2JG1HNGz/84klThPVCc=);strokeColor=#000000;points=[];labelBackgroundColor=none;rounded=0;html=1;whiteSpace=wrap;" parent="1" vertex="1">
            <mxGeometry x="872" y="2513" width="248" height="54" as="geometry" />
          </mxCell>
        </UserObject>
        <UserObject label="&lt;div style=&quot;font-size: 1px&quot;&gt;&lt;font style=&quot;font-size:14.11px;font-family:Calibri;color:#000000;direction:ltr;letter-spacing:0px;line-height:120%;opacity:1&quot;&gt;¿Código correcto?&lt;br/&gt;&lt;/font&gt;&lt;/div&gt;" tags="Fondo" id="46">
          <mxCell style="verticalAlign=middle;align=center;overflow=width;vsdxID=122;fillColor=#ffffff;gradientColor=none;shape=stencil(nZBNDoUgDIRP0z3SeAKf3sNElEYEg/h3+wdpjIaFC3cz9OukDGC16HZWIMUSvBvVTl3QgD+QkqxWnkJUgDVg1TuvBu9W27Gf20QmNbktJRy8V4q0IsXJthDsG2YN2Qd7DS+4fGGz3Bfyc2Z2axT3J3syhjt6zvNS4hMXivUf);strokeColor=#000000;points=[[0.5,1,0],[1,0.5,0],[0.5,0,0],[0,0.5,0]];labelBackgroundColor=none;rounded=0;html=1;whiteSpace=wrap;" parent="1" vertex="1">
            <mxGeometry x="1039" y="1957" width="160" height="41" as="geometry" />
          </mxCell>
        </UserObject>
        <UserObject label="&lt;div style=&quot;font-size: 1px&quot;&gt;&lt;font style=&quot;font-size:11.29px;font-family:Calibri;color:#000000;direction:ltr;letter-spacing:0px;line-height:120%;opacity:1&quot;&gt;Contraseña&lt;br/&gt;&lt;/font&gt;&lt;/div&gt;" tags="Diagrama_de_flujo" id="47">
          <mxCell style="verticalAlign=middle;align=center;overflow=width;vsdxID=126;fillColor=#ffffff;gradientColor=none;shape=stencil(UzV2Ls5ILEhVNTIoLinKz04tz0wpyVA1dlE1MsrMy0gtyiwBslSNXVWNndPyi1LTi/JL81Ig/IJEkEoQKze/DGRCBUSfsZ6xJUiTkUElRMDQwADMd4OozsnMQ1INkyRLMR6lGK7AoxbVUFNSTEVzLpCBCJa0zJwcSKgiy6MHI1AIEgXGrgA=);strokeColor=#000000;spacingTop=-1;spacingBottom=-1;spacingLeft=-1;spacingRight=-1;points=[[0.5,0,0],[0.5,0.5,0],[1,0.5,0]];labelBackgroundColor=none;rounded=0;html=1;whiteSpace=wrap;" parent="1" vertex="1">
            <mxGeometry x="1060" y="2051" width="120" height="32" as="geometry" />
          </mxCell>
        </UserObject>
        <UserObject label="&lt;div style=&quot;font-size: 1px&quot;&gt;&lt;font style=&quot;font-size:14.11px;font-family:Calibri;color:#000000;direction:ltr;letter-spacing:0px;line-height:120%;opacity:1&quot;&gt;Confirmación de la cotraseña&lt;br/&gt;&lt;/font&gt;&lt;/div&gt;" tags="Fondo" id="48">
          <mxCell style="verticalAlign=middle;align=center;overflow=width;vsdxID=127;fillColor=#ffffff;gradientColor=none;shape=stencil(UzV2Ls5ILEhVNTIoLinKz04tz0wpyVA1dlE1MsrMy0gtyiwBslSNXVWNndPyi1LTi/JL81Ig/IJEkEoQKze/DGRCBUSfAUiHkUElhGdoAOG7QZTmZOYhKbUkQS1MEqYYr1JiVeK1H8hA+DEtMycHEkTI8uhhAhSChKexKwA=);strokeColor=#000000;points=[[0.05,0.5,0],[0.95,0.5,0],[0.45,0.5,0],[0.55,0,0]];labelBackgroundColor=none;rounded=0;html=1;whiteSpace=wrap;" parent="1" vertex="1">
            <mxGeometry x="1028" y="2111" width="140" height="36" as="geometry" />
          </mxCell>
        </UserObject>
        <UserObject label="&lt;div style=&quot;font-size: 1px&quot;&gt;&lt;font style=&quot;font-size:14.11px;font-family:Calibri;color:#000000;direction:ltr;letter-spacing:0px;line-height:120%;opacity:1&quot;&gt;Contraseña nueva&lt;br/&gt;&lt;/font&gt;&lt;/div&gt;" tags="Fondo" id="49">
          <mxCell style="verticalAlign=middle;align=center;overflow=width;vsdxID=128;fillColor=#ffffff;gradientColor=none;shape=stencil(UzV2Ls5ILEhVNTIoLinKz04tz0wpyVA1dlE1MsrMy0gtyiwBslSNXVWNndPyi1LTi/JL81Ig/IJEkEoQKze/DGRCBUSfAUiHkUElhGdoAOG7QZTmZOYhKbUkQS1MEqYYr1JiVeK1H8hA+DEtMycHEkTI8uhhAhSChKexKwA=);strokeColor=#000000;points=[[0.05,0.5,0],[0.95,0.5,0],[0.45,0.5,0],[0.55,0,0]];labelBackgroundColor=none;rounded=0;html=1;whiteSpace=wrap;" parent="1" vertex="1">
            <mxGeometry x="1210" y="2051" width="140" height="36" as="geometry" />
          </mxCell>
        </UserObject>
        <UserObject label="&lt;div style=&quot;font-size: 1px&quot;&gt;&lt;font style=&quot;font-size:14.11px;font-family:Calibri;color:#000000;direction:ltr;letter-spacing:0px;line-height:120%;opacity:1&quot;&gt;¿Contraseñas introducidas son iguales?&lt;br/&gt;&lt;/font&gt;&lt;/div&gt;" tags="Fondo" id="50">
          <mxCell style="verticalAlign=middle;align=center;overflow=width;vsdxID=131;fillColor=#ffffff;gradientColor=none;shape=stencil(nZBNDoUgDIRP0z3SeAKf3sNElEYEg/h3+wdpjIaFC3cz9OukDGC16HZWIMUSvBvVTl3QgD+QkqxWnkJUgDVg1TuvBu9W27Gf20QmNbktJRy8V4q0IsXJthDsG2YN2Qd7DS+4fGGz3Bfyc2Z2axT3J3syhjt6zvNS4hMXivUf);strokeColor=#000000;points=[[0.5,1,0],[1,0.5,0],[0.5,0,0],[0,0.5,0]];labelBackgroundColor=none;rounded=0;html=1;whiteSpace=wrap;" parent="1" vertex="1">
            <mxGeometry x="1160" y="2249" width="160" height="109" as="geometry" />
          </mxCell>
        </UserObject>
        <UserObject label="&lt;div style=&quot;font-size: 1px&quot;&gt;&lt;p style=&quot;text-align:center;margin-left:0;margin-right:0;margin-top:0px;margin-bottom:11px;text-indent:0;vertical-align:middle;direction:ltr;&quot;&gt;&lt;font style=&quot;font-size:15.52px;font-family:Calibri;color:#000000;direction:ltr;letter-spacing:0px;line-height:108%;opacity:1&quot;&gt;Se Realiza el cambio de contraseña&lt;/font&gt;&lt;font style=&quot;font-size:14.11px;font-family:Themed;color:#000000;direction:ltr;letter-spacing:0px;line-height:108%;opacity:1&quot;&gt;&lt;br/&gt;&lt;/font&gt;&lt;/p&gt;&lt;/div&gt;" tags="Fondo" id="51">
          <mxCell style="verticalAlign=middle;align=center;overflow=width;vsdxID=135;fillColor=#FFFFFF;gradientColor=none;shape=stencil(nZBLDoAgDERP0z3SIyjew0SURgSD+Lu9kMZoXLhwN9O+tukAlrNpJg1SzDH4QW/URgNYgZTkjA4UkwJUgGXng+6DX1zLfmoymdXo17xh5zmRJ6Q42BWCfc2oJfdAr+Yv+AP9Cb7OJ3H/2JG1HNGz/84klThPVCc=);strokeColor=#000000;points=[];labelBackgroundColor=none;rounded=0;html=1;whiteSpace=wrap;" parent="1" vertex="1">
            <mxGeometry x="1031" y="2367" width="161" height="41" as="geometry" />
          </mxCell>
        </UserObject>
        <UserObject label="&lt;div style=&quot;font-size: 1px&quot;&gt;&lt;font style=&quot;font-size:16.93px;font-family:Calibri;color:#000000;direction:ltr;letter-spacing:0px;line-height:120%;opacity:1&quot;&gt;2&lt;br/&gt;&lt;/font&gt;&lt;/div&gt;" tags="Conector Diagrama_de_flujo" id="52">
          <mxCell style="verticalAlign=middle;align=center;overflow=width;vsdxID=141;fillColor=#ffffff;gradientColor=none;shape=stencil(UzV2Ls5ILEhVNTIoLinKz04tz0wpyVA1dlE1MsrMy0gtyiwBslSNXVWNndPyi1LTi/JL81Ig/IJEkEoQKze/DGRCBUSfAUiHkUElMs8NojAnMw+nQlM8Kk1RlRoa4FELkyTGXHS1RDsWRSGQgQiLtMycHEhQIsujhx1QCBLuxq4A);strokeColor=#000000;spacingTop=-1;spacingBottom=-1;spacingLeft=-1;spacingRight=-1;points=[[0.5,0,0],[1,0.5,0],[0.5,0.5,0],[0.5,0.5,0]];labelBackgroundColor=none;rounded=0;html=1;whiteSpace=wrap;" parent="1" vertex="1">
            <mxGeometry x="672" y="1772" width="54" height="54" as="geometry" />
          </mxCell>
        </UserObject>
        <UserObject label="&lt;div style=&quot;font-size: 1px&quot;&gt;&lt;font style=&quot;font-size:11.29px;font-family:Calibri;color:#000000;direction:ltr;letter-spacing:0px;line-height:120%;opacity:1&quot;&gt;enviar&lt;br/&gt;&lt;/font&gt;&lt;/div&gt;" tags="Diagrama_de_flujo" id="53">
          <mxCell style="verticalAlign=middle;align=center;overflow=width;vsdxID=143;fillColor=#ffffff;gradientColor=none;shape=stencil(UzV2Ls5ILEhVNTIoLinKz04tz0wpyVA1dlE1MsrMy0gtyiwBslSNXVWNndPyi1LTi/JL81Ig/IJEkEoQKze/DGRCBUSfsZ6xJUiTkUElRMDQwADMd4OozsnMQ1INkyRLMR6lGK7AoxbVUFNSTEVzLpCBCJa0zJwcSKgiy6MHI1AIEgXGrgA=);strokeColor=#000000;spacingTop=-1;spacingBottom=-1;spacingLeft=-1;spacingRight=-1;points=[[0.5,0,0],[0.5,0.5,0],[1,0.5,0]];labelBackgroundColor=none;rounded=0;html=1;whiteSpace=wrap;" parent="1" vertex="1">
            <mxGeometry x="1041" y="1381" width="120" height="32" as="geometry" />
          </mxCell>
        </UserObject>
        <UserObject label="&lt;div style=&quot;font-size: 1px&quot;&gt;&lt;font style=&quot;font-size:14.11px;font-family:Calibri;color:#000000;direction:ltr;letter-spacing:0px;line-height:120%;opacity:1&quot;&gt;enviar&lt;br/&gt;&lt;/font&gt;&lt;/div&gt;" tags="Fondo" id="54">
          <mxCell style="verticalAlign=middle;align=center;overflow=width;vsdxID=145;fillColor=#ffffff;gradientColor=none;shape=stencil(UzV2Ls5ILEhVNTIoLinKz04tz0wpyVA1dlE1MsrMy0gtyiwBslSNXVWNndPyi1LTi/JL81Ig/IJEkEoQKze/DGRCBUSfAUiHkUElhGdoAOG7QZTmZOYhKbUkQS1MEqYYr1JiVeK1H8hA+DEtMycHEkTI8uhhAhSChKexKwA=);strokeColor=#000000;points=[[0.05,0.5,0],[0.95,0.5,0],[0.45,0.5,0],[0.55,0,0]];labelBackgroundColor=none;rounded=0;html=1;whiteSpace=wrap;" parent="1" vertex="1">
            <mxGeometry x="1061" y="1437" width="114" height="26" as="geometry" />
          </mxCell>
        </UserObject>
        <UserObject label="&lt;div style=&quot;font-size: 1px&quot;&gt;&lt;font style=&quot;font-size:14.11px;font-family:Calibri;color:#000000;direction:ltr;letter-spacing:0px;line-height:120%;opacity:1&quot;&gt;¿Correo válido?&lt;br/&gt;&lt;/font&gt;&lt;/div&gt;" tags="Fondo" id="55">
          <mxCell style="verticalAlign=middle;align=center;overflow=width;vsdxID=147;fillColor=#ffffff;gradientColor=none;shape=stencil(nZBNDoUgDIRP0z3SeAKf3sNElEYEg/h3+wdpjIaFC3cz9OukDGC16HZWIMUSvBvVTl3QgD+QkqxWnkJUgDVg1TuvBu9W27Gf20QmNbktJRy8V4q0IsXJthDsG2YN2Qd7DS+4fGGz3Bfyc2Z2axT3J3syhjt6zvNS4hMXivUf);strokeColor=#000000;points=[[0.5,1,0],[1,0.5,0],[0.5,0,0],[0,0.5,0]];labelBackgroundColor=none;rounded=0;html=1;whiteSpace=wrap;" parent="1" vertex="1">
            <mxGeometry x="1038" y="1503" width="160" height="54" as="geometry" />
          </mxCell>
        </UserObject>
        <UserObject label="&lt;div style=&quot;font-size: 1px&quot;&gt;&lt;font style=&quot;font-size:11.29px;font-family:Calibri;color:#000000;direction:ltr;letter-spacing:0px;line-height:120%;opacity:1&quot;&gt;Enviar&lt;br/&gt;&lt;/font&gt;&lt;/div&gt;" tags="Diagrama_de_flujo" id="56">
          <mxCell style="verticalAlign=middle;align=center;overflow=width;vsdxID=150;fillColor=#ffffff;gradientColor=none;shape=stencil(UzV2Ls5ILEhVNTIoLinKz04tz0wpyVA1dlE1MsrMy0gtyiwBslSNXVWNndPyi1LTi/JL81Ig/IJEkEoQKze/DGRCBUSfsZ6xJUiTkUElRMDQwADMd4OozsnMQ1INkyRLMR6lGK7AoxbVUFNSTEVzLpCBCJa0zJwcSKgiy6MHI1AIEgXGrgA=);strokeColor=#000000;spacingTop=-1;spacingBottom=-1;spacingLeft=-1;spacingRight=-1;points=[[0.5,0,0],[0.5,0.5,0],[1,0.5,0]];labelBackgroundColor=none;rounded=0;html=1;whiteSpace=wrap;" parent="1" vertex="1">
            <mxGeometry x="1059" y="1828" width="120" height="32" as="geometry" />
          </mxCell>
        </UserObject>
        <UserObject label="&lt;div style=&quot;font-size: 1px&quot;&gt;&lt;font style=&quot;font-size:14.11px;font-family:Calibri;color:#000000;direction:ltr;letter-spacing:0px;line-height:120%;opacity:1&quot;&gt;enviar&lt;br/&gt;&lt;/font&gt;&lt;/div&gt;" tags="Fondo" id="57">
          <mxCell style="verticalAlign=middle;align=center;overflow=width;vsdxID=152;fillColor=#ffffff;gradientColor=none;shape=stencil(UzV2Ls5ILEhVNTIoLinKz04tz0wpyVA1dlE1MsrMy0gtyiwBslSNXVWNndPyi1LTi/JL81Ig/IJEkEoQKze/DGRCBUSfAUiHkUElhGdoAOG7QZTmZOYhKbUkQS1MEqYYr1JiVeK1H8hA+DEtMycHEkTI8uhhAhSChKexKwA=);strokeColor=#000000;points=[[0.05,0.5,0],[0.95,0.5,0],[0.45,0.5,0],[0.55,0,0]];labelBackgroundColor=none;rounded=0;html=1;whiteSpace=wrap;" parent="1" vertex="1">
            <mxGeometry x="1059" y="1893" width="120" height="31" as="geometry" />
          </mxCell>
        </UserObject>
        <UserObject label="&lt;div style=&quot;font-size: 1px&quot;&gt;&lt;font style=&quot;font-size:11.29px;font-family:Calibri;color:#000000;direction:ltr;letter-spacing:0px;line-height:120%;opacity:1&quot;&gt;Enviar&lt;br/&gt;&lt;/font&gt;&lt;/div&gt;" tags="Diagrama_de_flujo" id="58">
          <mxCell style="verticalAlign=middle;align=center;overflow=width;vsdxID=154;fillColor=#ffffff;gradientColor=none;shape=stencil(UzV2Ls5ILEhVNTIoLinKz04tz0wpyVA1dlE1MsrMy0gtyiwBslSNXVWNndPyi1LTi/JL81Ig/IJEkEoQKze/DGRCBUSfsZ6xJUiTkUElRMDQwADMd4OozsnMQ1INkyRLMR6lGK7AoxbVUFNSTEVzLpCBCJa0zJwcSKgiy6MHI1AIEgXGrgA=);strokeColor=#000000;spacingTop=-1;spacingBottom=-1;spacingLeft=-1;spacingRight=-1;points=[[0.5,0,0],[0.5,0.5,0],[1,0.5,0]];labelBackgroundColor=none;rounded=0;html=1;whiteSpace=wrap;" parent="1" vertex="1">
            <mxGeometry x="1038" y="2176" width="120" height="32" as="geometry" />
          </mxCell>
        </UserObject>
        <UserObject label="&lt;div style=&quot;font-size: 1px&quot;&gt;&lt;font style=&quot;font-size:14.11px;font-family:Calibri;color:#000000;direction:ltr;letter-spacing:0px;line-height:120%;opacity:1&quot;&gt;enviar&lt;br/&gt;&lt;/font&gt;&lt;/div&gt;" tags="Fondo" id="59">
          <mxCell style="verticalAlign=middle;align=center;overflow=width;vsdxID=156;fillColor=#ffffff;gradientColor=none;shape=stencil(UzV2Ls5ILEhVNTIoLinKz04tz0wpyVA1dlE1MsrMy0gtyiwBslSNXVWNndPyi1LTi/JL81Ig/IJEkEoQKze/DGRCBUSfAUiHkUElhGdoAOG7QZTmZOYhKbUkQS1MEqYYr1JiVeK1H8hA+DEtMycHEkTI8uhhAhSChKexKwA=);strokeColor=#000000;points=[[0.05,0.5,0],[0.95,0.5,0],[0.45,0.5,0],[0.55,0,0]];labelBackgroundColor=none;rounded=0;html=1;whiteSpace=wrap;" parent="1" vertex="1">
            <mxGeometry x="1188" y="2177" width="120" height="31" as="geometry" />
          </mxCell>
        </UserObject>
        <UserObject label="&lt;div style=&quot;font-size: 1px&quot;&gt;&lt;font style=&quot;font-size:11.29px;font-family:Calibri;color:#000000;direction:ltr;letter-spacing:0px;line-height:120%;opacity:1&quot;&gt;Enviar&lt;br/&gt;&lt;/font&gt;&lt;/div&gt;" tags="Diagrama_de_flujo" id="60">
          <mxCell style="verticalAlign=middle;align=center;overflow=width;vsdxID=158;fillColor=#ffffff;gradientColor=none;shape=stencil(UzV2Ls5ILEhVNTIoLinKz04tz0wpyVA1dlE1MsrMy0gtyiwBslSNXVWNndPyi1LTi/JL81Ig/IJEkEoQKze/DGRCBUSfsZ6xJUiTkUElRMDQwADMd4OozsnMQ1INkyRLMR6lGK7AoxbVUFNSTEVzLpCBCJa0zJwcSKgiy6MHI1AIEgXGrgA=);strokeColor=#000000;spacingTop=-1;spacingBottom=-1;spacingLeft=-1;spacingRight=-1;points=[[0.5,0,0],[0.5,0.5,0],[1,0.5,0]];labelBackgroundColor=none;rounded=0;html=1;whiteSpace=wrap;" parent="1" vertex="1">
            <mxGeometry x="1545" y="2638" width="120" height="32" as="geometry" />
          </mxCell>
        </UserObject>
        <UserObject label="&lt;div style=&quot;font-size: 1px&quot;&gt;&lt;font style=&quot;font-size:14.11px;font-family:Calibri;color:#000000;direction:ltr;letter-spacing:0px;line-height:120%;opacity:1&quot;&gt;enviar&lt;br/&gt;&lt;/font&gt;&lt;/div&gt;" tags="Fondo" id="61">
          <mxCell style="verticalAlign=middle;align=center;overflow=width;vsdxID=160;fillColor=#ffffff;gradientColor=none;shape=stencil(UzV2Ls5ILEhVNTIoLinKz04tz0wpyVA1dlE1MsrMy0gtyiwBslSNXVWNndPyi1LTi/JL81Ig/IJEkEoQKze/DGRCBUSfAUiHkUElhGdoAOG7QZTmZOYhKbUkQS1MEqYYr1JiVeK1H8hA+DEtMycHEkTI8uhhAhSChKexKwA=);strokeColor=#000000;points=[[0.05,0.5,0],[0.95,0.5,0],[0.45,0.5,0],[0.55,0,0]];labelBackgroundColor=none;rounded=0;html=1;whiteSpace=wrap;" parent="1" vertex="1">
            <mxGeometry x="1540" y="2700" width="120" height="31" as="geometry" />
          </mxCell>
        </UserObject>
        <UserObject label="&lt;div style=&quot;font-size: 1px&quot;&gt;&lt;font style=&quot;font-size:14.11px;font-family:Calibri;color:#000000;direction:ltr;letter-spacing:0px;line-height:120%;opacity:1&quot;&gt;registrarse&lt;/font&gt;&lt;font style=&quot;font-size:11.29px;font-family:Themed;color:#000000;direction:ltr;letter-spacing:0px;line-height:120%;opacity:1&quot;&gt;&lt;br/&gt;&lt;/font&gt;&lt;/div&gt;" tags="Diagrama_de_flujo" id="62">
          <mxCell style="verticalAlign=middle;align=center;overflow=width;vsdxID=162;fillColor=#ffffff;gradientColor=none;shape=stencil(UzV2Ls5ILEhVNTIoLinKz04tz0wpyVA1dlE1MsrMy0gtyiwBslSNXVWNndPyi1LTi/JL81Ig/IJEkEoQKze/DGRCBUSfsZ6xJUiTkUElRMDQwADMd4OozsnMQ1INkyRLMR6lGK7AoxbVUFNSTEVzLpCBCJa0zJwcSKgiy6MHI1AIEgXGrgA=);strokeColor=#000000;spacingTop=-1;spacingBottom=-1;spacingLeft=-1;spacingRight=-1;points=[[0.5,0,0],[0.5,0.5,0],[1,0.5,0]];labelBackgroundColor=none;rounded=0;html=1;whiteSpace=wrap;" parent="1" vertex="1">
            <mxGeometry x="1580" y="1936" width="120" height="32" as="geometry" />
          </mxCell>
        </UserObject>
        <UserObject label="&lt;div style=&quot;font-size: 1px&quot;&gt;&lt;font style=&quot;font-size:14.11px;font-family:Calibri;color:#000000;direction:ltr;letter-spacing:0px;line-height:120%;opacity:1&quot;&gt;registrarse&lt;br/&gt;&lt;/font&gt;&lt;/div&gt;" tags="Fondo" id="63">
          <mxCell style="verticalAlign=middle;align=center;overflow=width;vsdxID=165;fillColor=#ffffff;gradientColor=none;shape=stencil(UzV2Ls5ILEhVNTIoLinKz04tz0wpyVA1dlE1MsrMy0gtyiwBslSNXVWNndPyi1LTi/JL81Ig/IJEkEoQKze/DGRCBUSfAUiHkUElhGdoAOG7QZTmZOYhKbUkQS1MEqYYr1JiVeK1H8hA+DEtMycHEkTI8uhhAhSChKexKwA=);strokeColor=#000000;points=[[0.05,0.5,0],[0.95,0.5,0],[0.45,0.5,0],[0.55,0,0]];labelBackgroundColor=none;rounded=0;html=1;whiteSpace=wrap;" parent="1" vertex="1">
            <mxGeometry x="1430" y="1937" width="120" height="31" as="geometry" />
          </mxCell>
        </UserObject>
        <UserObject label="&lt;div style=&quot;font-size: 1px&quot;&gt;&lt;font style=&quot;font-size:14.11px;font-family:Calibri;color:#000000;direction:ltr;letter-spacing:0px;line-height:120%;opacity:1&quot;&gt;Reenviar código&lt;br/&gt;&lt;/font&gt;&lt;/div&gt;" tags="Fondo" id="64">
          <mxCell style="verticalAlign=middle;align=center;overflow=width;vsdxID=167;fillColor=#ffffff;gradientColor=none;shape=stencil(UzV2Ls5ILEhVNTIoLinKz04tz0wpyVA1dlE1MsrMy0gtyiwBslSNXVWNndPyi1LTi/JL81Ig/IJEkEoQKze/DGRCBUSfAUiHkUElhGdoAOG7QZTmZOYhKbUkQS1MEqYYr1JiVeK1H8hA+DEtMycHEkTI8uhhAhSChKexKwA=);strokeColor=#000000;points=[[0.05,0.5,0],[0.95,0.5,0],[0.45,0.5,0],[0.55,0,0]];labelBackgroundColor=none;rounded=0;html=1;whiteSpace=wrap;" parent="1" vertex="1">
            <mxGeometry x="1860" y="2835" width="113" height="29" as="geometry" />
          </mxCell>
        </UserObject>
        <UserObject label="" tags="Diagrama_de_flujo" id="65">
          <mxCell style="vsdxID=174;fillColor=#ffffff;gradientColor=none;shape=stencil(UzV2Ls5ILEhVNTIoLinKz04tz0wpyVA1dlE1MsrMy0gtyiwBslSNXVWNndPyi1LTi/JL81Ig/IJEkEoQKze/DGRCBUSfAUiHkUElhGcK4bpBVOZk5iGpNEVVikeloQHZpsK0YlWLz1QgA+HFtMycHEgIIcujBwlQCBKcxq4A);strokeColor=#000000;spacingTop=-1;spacingBottom=-1;spacingLeft=-1;spacingRight=-1;points=[[1,0.5,0],[0.5,0,0],[0.5,0,0]];labelBackgroundColor=none;rounded=0;html=1;whiteSpace=wrap;" parent="1" vertex="1">
            <mxGeometry x="1021" y="969" width="160" height="58" as="geometry" />
          </mxCell>
        </UserObject>
        <mxCell id="66" value="&lt;div style=&quot;font-size: 1px&quot;&gt;&lt;font style=&quot;font-size:16.93px;font-family:Calibri;color:#000000;direction:ltr;letter-spacing:0px;line-height:120%;opacity:1&quot;&gt;Opcion elegida&lt;br/&gt;&lt;/font&gt;&lt;/div&gt;" style="text;vsdxID=174;fillColor=none;gradientColor=none;strokeColor=none;spacingTop=-1;spacingBottom=-1;spacingLeft=-1;spacingRight=-1;points=[[1,0.5,0],[0.5,0,0],[0.5,0,0]];labelBackgroundColor=none;rounded=0;html=1;whiteSpace=wrap;verticalAlign=middle;align=center;overflow=width;;html=1;" parent="65" vertex="1">
          <mxGeometry x="13.33" y="6.86" width="133.33" height="43.83" as="geometry" />
        </mxCell>
        <UserObject label="&lt;div style=&quot;font-size: 1px&quot;&gt;&lt;/div&gt;" tags="Conector" id="187">
          <mxCell style="vsdxID=179;edgeStyle=none;startArrow=none;endArrow=block;startSize=5;endSize=5;strokeColor=#000000;spacingTop=0;spacingBottom=0;spacingLeft=0;spacingRight=0;verticalAlign=middle;html=1;labelBackgroundColor=#ffffff;rounded=0;align=center;" parent="1" edge="1">
            <mxGeometry relative="1" as="geometry">
              <mxPoint as="offset" />
              <Array as="points">
                <mxPoint x="1639.12" y="1049" />
              </Array>
              <mxPoint x="1101" y="1049" as="sourcePoint" />
              <mxPoint x="1640" y="1089" as="targetPoint" />
            </mxGeometry>
          </mxCell>
        </UserObject>
        <UserObject label="&lt;div style=&quot;font-size: 1px&quot;&gt;&lt;font style=&quot;font-size:14.11px;font-family:Calibri;color:#000000;direction:ltr;letter-spacing:0px;line-height:120%;opacity:1&quot;&gt;¿Ya tienes una cuenta? Iniciar sesión&lt;/font&gt;&lt;font style=&quot;font-size:11.29px;font-family:Themed;color:#000000;direction:ltr;letter-spacing:0px;line-height:120%;opacity:1&quot;&gt;&lt;br/&gt;&lt;/font&gt;&lt;/div&gt;" tags="Diagrama_de_flujo" id="67">
          <mxCell style="verticalAlign=middle;align=center;overflow=width;vsdxID=185;fillColor=#ffffff;gradientColor=none;shape=stencil(UzV2Ls5ILEhVNTIoLinKz04tz0wpyVA1dlE1MsrMy0gtyiwBslSNXVWNndPyi1LTi/JL81Ig/IJEkEoQKze/DGRCBUSfkZ4RSI+RQSWEb2hgAOa7QRTnZOYhKYZJkqUYj1J0R+BRimqmKQmGojkWyECESVpmTg4kSJHl0cMQKAQJf2NXAA==);strokeColor=#000000;spacingTop=-1;spacingBottom=-1;spacingLeft=-1;spacingRight=-1;points=[[0.5,0,0],[0.5,0.5,0],[1,0.5,0]];labelBackgroundColor=none;rounded=0;html=1;whiteSpace=wrap;" parent="1" vertex="1">
            <mxGeometry x="1397" y="2029" width="185" height="32" as="geometry" />
          </mxCell>
        </UserObject>
        <UserObject label="&lt;div style=&quot;font-size: 1px&quot;&gt;&lt;font style=&quot;font-size:14.11px;font-family:Calibri;color:#000000;direction:ltr;letter-spacing:0px;line-height:120%;opacity:1&quot;&gt;Iniciar sesión&lt;br/&gt;&lt;/font&gt;&lt;/div&gt;" tags="Fondo" id="68">
          <mxCell style="verticalAlign=middle;align=center;overflow=width;vsdxID=187;fillColor=#ffffff;gradientColor=none;shape=stencil(UzV2Ls5ILEhVNTIoLinKz04tz0wpyVA1dlE1MsrMy0gtyiwBslSNXVWNndPyi1LTi/JL81Ig/IJEkEoQKze/DGRCBUSfAUiHkUElhGdoAOG7QZTmZOYhKbUkQS1MEqYYr1JiVeK1H8hA+DEtMycHEkTI8uhhAhSChKexKwA=);strokeColor=#000000;points=[[0.05,0.5,0],[0.95,0.5,0],[0.45,0.5,0],[0.55,0,0]];labelBackgroundColor=none;rounded=0;html=1;whiteSpace=wrap;" parent="1" vertex="1">
            <mxGeometry x="1430" y="2112" width="120" height="31" as="geometry" />
          </mxCell>
        </UserObject>
        <UserObject label="&lt;div style=&quot;font-size: 1px&quot;&gt;&lt;font style=&quot;font-size:11.29px;font-family:Calibri;color:#000000;direction:ltr;letter-spacing:0px;line-height:120%;opacity:1&quot;&gt;Credenciales incorrectas&lt;br/&gt;&lt;/font&gt;&lt;/div&gt;" tags="Diagrama_de_flujo" id="69">
          <mxCell style="verticalAlign=middle;align=center;overflow=width;vsdxID=189;fillColor=#ffffff;gradientColor=none;shape=stencil(UzV2Ls5ILEhVNTIoLinKz04tz0wpyVA1dlE1MsrMy0gtyiwBslSNXVWNndPyi1LTi/JL81Ig/IJEkEoQKze/DGRCBUSfsZ6xJUiTkUElRMDQwADMd4OozsnMQ1INkyRLMR6lGK7AoxbVUFNSTEVzLpCBCJa0zJwcSKgiy6MHI1AIEgXGrgA=);strokeColor=#000000;spacingTop=-1;spacingBottom=-1;spacingLeft=-1;spacingRight=-1;points=[[0.5,0,0],[0.5,0.5,0],[1,0.5,0]];labelBackgroundColor=none;rounded=0;html=1;whiteSpace=wrap;" parent="1" vertex="1">
            <mxGeometry x="500" y="1296" width="120" height="32" as="geometry" />
          </mxCell>
        </UserObject>
        <UserObject label="&lt;div style=&quot;font-size: 1px&quot;&gt;&lt;font style=&quot;font-size:11.29px;font-family:Calibri;color:#000000;direction:ltr;letter-spacing:0px;line-height:120%;opacity:1&quot;&gt;Còdigo incorreto&lt;br/&gt;&lt;/font&gt;&lt;/div&gt;" tags="Diagrama_de_flujo" id="70">
          <mxCell style="verticalAlign=middle;align=center;overflow=width;vsdxID=192;fillColor=#ffffff;gradientColor=none;shape=stencil(UzV2Ls5ILEhVNTIoLinKz04tz0wpyVA1dlE1MsrMy0gtyiwBslSNXVWNndPyi1LTi/JL81Ig/IJEkEoQKze/DGRCBUSfsZ6xJUiTkUElRMDQwADMd4OozsnMQ1INkyRLMR6lGK7AoxbVUFNSTEVzLpCBCJa0zJwcSKgiy6MHI1AIEgXGrgA=);strokeColor=#000000;spacingTop=-1;spacingBottom=-1;spacingLeft=-1;spacingRight=-1;points=[[0.5,0,0],[0.5,0.5,0],[1,0.5,0]];labelBackgroundColor=none;rounded=0;html=1;whiteSpace=wrap;" parent="1" vertex="1">
            <mxGeometry x="932" y="1836" width="120" height="32" as="geometry" />
          </mxCell>
        </UserObject>
        <UserObject label="&lt;div style=&quot;font-size: 1px&quot;&gt;&lt;font style=&quot;font-size:11.29px;font-family:Calibri;color:#000000;direction:ltr;letter-spacing:0px;line-height:120%;opacity:1&quot;&gt;Contraseña nueva&lt;br/&gt;&lt;/font&gt;&lt;/div&gt;" tags="Diagrama_de_flujo" id="71">
          <mxCell style="verticalAlign=middle;align=center;overflow=width;vsdxID=194;fillColor=#ffffff;gradientColor=none;shape=stencil(UzV2Ls5ILEhVNTIoLinKz04tz0wpyVA1dlE1MsrMy0gtyiwBslSNXVWNndPyi1LTi/JL81Ig/IJEkEoQKze/DGRCBUSfsZ6xJUiTkUElRMDQwADMd4OozsnMQ1INkyRLMR6lGK7AoxbVUFNSTEVzLpCBCJa0zJwcSKgiy6MHI1AIEgXGrgA=);strokeColor=#000000;spacingTop=-1;spacingBottom=-1;spacingLeft=-1;spacingRight=-1;points=[[0.5,0,0],[0.5,0.5,0],[1,0.5,0]];labelBackgroundColor=none;rounded=0;html=1;whiteSpace=wrap;" parent="1" vertex="1">
            <mxGeometry x="1210" y="2111" width="120" height="32" as="geometry" />
          </mxCell>
        </UserObject>
        <UserObject label="&lt;div style=&quot;font-size: 1px&quot;&gt;&lt;font style=&quot;font-size:11.29px;font-family:Calibri;color:#000000;direction:ltr;letter-spacing:0px;line-height:120%;opacity:1&quot;&gt;Contraseñas no iguales&lt;br/&gt;&lt;/font&gt;&lt;/div&gt;" tags="Diagrama_de_flujo" id="72">
          <mxCell style="verticalAlign=middle;align=center;overflow=width;vsdxID=196;fillColor=#ffffff;gradientColor=none;shape=stencil(UzV2Ls5ILEhVNTIoLinKz04tz0wpyVA1dlE1MsrMy0gtyiwBslSNXVWNndPyi1LTi/JL81Ig/IJEkEoQKze/DGRCBUSfsZ6xJUiTkUElRMDQwADMd4OozsnMQ1INkyRLMR6lGK7AoxbVUFNSTEVzLpCBCJa0zJwcSKgiy6MHI1AIEgXGrgA=);strokeColor=#000000;spacingTop=-1;spacingBottom=-1;spacingLeft=-1;spacingRight=-1;points=[[0.5,0,0],[0.5,0.5,0],[1,0.5,0]];labelBackgroundColor=none;rounded=0;html=1;whiteSpace=wrap;" parent="1" vertex="1">
            <mxGeometry x="888" y="2176" width="120" height="32" as="geometry" />
          </mxCell>
        </UserObject>
        <UserObject label="&lt;div style=&quot;font-size: 1px&quot;&gt;&lt;font style=&quot;font-size:16.93px;font-family:Calibri;color:#000000;direction:ltr;letter-spacing:0px;line-height:120%;opacity:1&quot;&gt;Olvidaste contraseña&lt;br/&gt;&lt;/font&gt;&lt;/div&gt;" tags="Fondo" id="73">
          <mxCell style="verticalAlign=middle;align=center;overflow=width;vsdxID=201;fillColor=#ffffff;gradientColor=none;shape=stencil(UzV2Ls5ILEhVNTIoLinKz04tz0wpyVA1dlE1MsrMy0gtyiwBslSNXVWNndPyi1LTi/JL81Ig/IJEkEoQKze/DGRCBUSfAUiHkUElhGdoAOG7QZTmZOYhKbUkQS1MEqYYr1JiVeK1H8hA+DEtMycHEkTI8uhhAhSChKexKwA=);strokeColor=#000000;points=[[0.05,0.5,0],[0.95,0.5,0],[0.45,0.5,0],[0.55,0,0]];labelBackgroundColor=none;rounded=0;html=1;whiteSpace=wrap;" parent="1" vertex="1">
            <mxGeometry x="610" y="933" width="140" height="58" as="geometry" />
          </mxCell>
        </UserObject>
        <UserObject label="&lt;div style=&quot;font-size: 1px&quot;&gt;&lt;font style=&quot;font-size:16.93px;font-family:Calibri;color:#000000;direction:ltr;letter-spacing:0px;line-height:120%;opacity:1&quot;&gt;Iniciar sesion&lt;br/&gt;&lt;/font&gt;&lt;/div&gt;" tags="Fondo" id="74">
          <mxCell style="verticalAlign=middle;align=center;overflow=width;vsdxID=202;fillColor=#ffffff;gradientColor=none;shape=stencil(UzV2Ls5ILEhVNTIoLinKz04tz0wpyVA1dlE1MsrMy0gtyiwBslSNXVWNndPyi1LTi/JL81Ig/IJEkEoQKze/DGRCBUSfAUiHkUElhGdoAOG7QZTmZOYhKbUkQS1MEqYYr1JiVeK1H8hA+DEtMycHEkTI8uhhAhSChKexKwA=);strokeColor=#000000;points=[[0.05,0.5,0],[0.95,0.5,0],[0.45,0.5,0],[0.55,0,0]];labelBackgroundColor=none;rounded=0;html=1;whiteSpace=wrap;" parent="1" vertex="1">
            <mxGeometry x="768" y="864" width="140" height="36" as="geometry" />
          </mxCell>
        </UserObject>
        <UserObject label="&lt;div style=&quot;font-size: 1px&quot;&gt;&lt;font style=&quot;font-size:16.93px;font-family:Calibri;color:#000000;direction:ltr;letter-spacing:0px;line-height:120%;opacity:1&quot;&gt;Registrarse&lt;br/&gt;&lt;/font&gt;&lt;/div&gt;" tags="Fondo" id="75">
          <mxCell style="verticalAlign=middle;align=center;overflow=width;vsdxID=359;fillColor=#ffffff;gradientColor=none;shape=stencil(UzV2Ls5ILEhVNTIoLinKz04tz0wpyVA1dlE1MsrMy0gtyiwBslSNXVWNndPyi1LTi/JL81Ig/IJEkEoQKze/DGRCBUSfAUiHkUElhGdoAOG7QZTmZOYhKbUkQS1MEqYYr1JiVeK1H8hA+DEtMycHEkTI8uhhAhSChKexKwA=);strokeColor=#000000;points=[[0.05,0.5,0],[0.95,0.5,0],[0.45,0.5,0],[0.55,0,0]];labelBackgroundColor=none;rounded=0;html=1;whiteSpace=wrap;" parent="1" vertex="1">
            <mxGeometry x="926" y="929" width="140" height="36" as="geometry" />
          </mxCell>
        </UserObject>
        <UserObject label="&lt;div style=&quot;font-size: 1px&quot;&gt;&lt;font style=&quot;font-size:16.93px;font-family:Calibri;color:#000000;direction:ltr;letter-spacing:0px;line-height:120%;opacity:1&quot;&gt;¿Olvidaste contraseña?&lt;br/&gt;&lt;/font&gt;&lt;/div&gt;" tags="Diagrama_de_flujo" id="76">
          <mxCell style="verticalAlign=middle;align=center;overflow=width;vsdxID=361;fillColor=#ffffff;gradientColor=none;shape=stencil(UzV2Ls5ILEhVNTIoLinKz04tz0wpyVA1dlE1MsrMy0gtyiwBslSNXVWNndPyi1LTi/JL81Ig/IJEkEoQKze/DGRCBUSfqZ6ZEUiTkUElRMDQwADMd4OozsnMQ1INkyRLMR6lGK7AoxbVUFNSTEVzLpCBCJa0zJwcSKgiy6MHI1AIEgXGrgA=);strokeColor=#000000;spacingTop=-1;spacingBottom=-1;spacingLeft=-1;spacingRight=-1;points=[[0.5,0,0],[0.5,0.5,0],[1,0.5,0]];labelBackgroundColor=none;rounded=0;html=1;whiteSpace=wrap;" parent="1" vertex="1">
            <mxGeometry x="615" y="854" width="130" height="58" as="geometry" />
          </mxCell>
        </UserObject>
        <UserObject label="&lt;div style=&quot;font-size: 1px&quot;&gt;&lt;font style=&quot;font-size:16.93px;font-family:Calibri;color:#000000;direction:ltr;letter-spacing:0px;line-height:120%;opacity:1&quot;&gt;Iniciar sesion&lt;br/&gt;&lt;/font&gt;&lt;/div&gt;" tags="Diagrama_de_flujo" id="77">
          <mxCell style="verticalAlign=middle;align=center;overflow=width;vsdxID=362;fillColor=#ffffff;gradientColor=none;shape=stencil(UzV2Ls5ILEhVNTIoLinKz04tz0wpyVA1dlE1MsrMy0gtyiwBslSNXVWNndPyi1LTi/JL81Ig/IJEkEoQKze/DGRCBUSfsZ6xJUiTkUElRMDQwADMd4OozsnMQ1INkyRLMR6lGK7AoxbVUFNSTEVzLpCBCJa0zJwcSKgiy6MHI1AIEgXGrgA=);strokeColor=#000000;spacingTop=-1;spacingBottom=-1;spacingLeft=-1;spacingRight=-1;points=[[0.5,0,0],[0.5,0.5,0],[1,0.5,0]];labelBackgroundColor=none;rounded=0;html=1;whiteSpace=wrap;" parent="1" vertex="1">
            <mxGeometry x="770" y="933" width="120" height="32" as="geometry" />
          </mxCell>
        </UserObject>
        <UserObject label="&lt;div style=&quot;font-size: 1px&quot;&gt;&lt;font style=&quot;font-size:16.93px;font-family:Calibri;color:#000000;direction:ltr;letter-spacing:0px;line-height:120%;opacity:1&quot;&gt;No tienes cuenta?&lt;br/&gt;&lt;/font&gt;&lt;/div&gt;" tags="Diagrama_de_flujo" id="78">
          <mxCell style="verticalAlign=middle;align=center;overflow=width;vsdxID=365;fillColor=#ffffff;gradientColor=none;shape=stencil(UzV2Ls5ILEhVNTIoLinKz04tz0wpyVA1dlE1MsrMy0gtyiwBslSNXVWNndPyi1LTi/JL81Ig/IJEkEoQKze/DGRCBUSfiZ6ROUiTkUElRMDQwADMd4OozsnMQ1INkyRLMR6lGK7AoxbVUFNSTEVzLpCBCJa0zJwcSKgiy6MHI1AIEgXGrgA=);strokeColor=#000000;spacingTop=-1;spacingBottom=-1;spacingLeft=-1;spacingRight=-1;points=[[0.5,0,0],[0.5,0.5,0],[1,0.5,0]];labelBackgroundColor=none;rounded=0;html=1;whiteSpace=wrap;" parent="1" vertex="1">
            <mxGeometry x="936" y="859" width="120" height="41" as="geometry" />
          </mxCell>
        </UserObject>
        <UserObject label="&lt;div style=&quot;font-size: 1px&quot;&gt;&lt;p style=&quot;text-align:center;margin-left:0;margin-right:0;margin-top:0px;margin-bottom:11px;text-indent:0;vertical-align:middle;direction:ltr;&quot;&gt;&lt;font style=&quot;font-size:15.52px;font-family:Calibri;color:#000000;direction:ltr;letter-spacing:0px;line-height:108%;opacity:1&quot;&gt;Iniciar  sesion&lt;/font&gt;&lt;font style=&quot;font-size:14.11px;font-family:Themed;color:#000000;direction:ltr;letter-spacing:0px;line-height:108%;opacity:1&quot;&gt;&lt;br/&gt;&lt;/font&gt;&lt;/p&gt;&lt;/div&gt;" tags="Fondo" id="79">
          <mxCell style="verticalAlign=middle;align=center;overflow=width;vsdxID=537;fillColor=#FFFFFF;gradientColor=none;shape=stencil(nZBLDoAgDERP0z3SIyjew0SURgSD+Lu9kMZoXLhwN9O+tukAlrNpJg1SzDH4QW/URgNYgZTkjA4UkwJUgGXng+6DX1zLfmoymdXo17xh5zmRJ6Q42BWCfc2oJfdAr+Yv+AP9Cb7OJ3H/2JG1HNGz/84klThPVCc=);strokeColor=#000000;points=[];labelBackgroundColor=none;rounded=0;html=1;whiteSpace=wrap;" parent="1" vertex="1">
            <mxGeometry x="640" y="1172" width="161" height="41" as="geometry" />
          </mxCell>
        </UserObject>
        <UserObject label="&lt;div style=&quot;font-size: 1px&quot;&gt;&lt;p style=&quot;text-align:center;margin-left:0;margin-right:0;margin-top:0px;margin-bottom:11px;text-indent:0;vertical-align:middle;direction:ltr;&quot;&gt;&lt;font style=&quot;font-size:15.52px;font-family:Calibri;color:#000000;direction:ltr;letter-spacing:0px;line-height:108%;opacity:1&quot;&gt;¿Olvidaste contraseña?&lt;/font&gt;&lt;font style=&quot;font-size:14.11px;font-family:Themed;color:#000000;direction:ltr;letter-spacing:0px;line-height:108%;opacity:1&quot;&gt;&lt;br/&gt;&lt;/font&gt;&lt;/p&gt;&lt;/div&gt;" tags="Fondo" id="80">
          <mxCell style="verticalAlign=middle;align=center;overflow=width;vsdxID=539;fillColor=#FFFFFF;gradientColor=none;shape=stencil(nZBLDoAgDERP0z3SIyjew0SURgSD+Lu9kMZoXLhwN9O+tukAlrNpJg1SzDH4QW/URgNYgZTkjA4UkwJUgGXng+6DX1zLfmoymdXo17xh5zmRJ6Q42BWCfc2oJfdAr+Yv+AP9Cb7OJ3H/2JG1HNGz/84klThPVCc=);strokeColor=#000000;points=[];labelBackgroundColor=none;rounded=0;html=1;whiteSpace=wrap;" parent="1" vertex="1">
            <mxGeometry x="1020" y="1156" width="161" height="41" as="geometry" />
          </mxCell>
        </UserObject>
        <UserObject label="&lt;div style=&quot;font-size: 1px&quot;&gt;&lt;p style=&quot;text-align:center;margin-left:0;margin-right:0;margin-top:0px;margin-bottom:11px;text-indent:0;vertical-align:middle;direction:ltr;&quot;&gt;&lt;font style=&quot;font-size:15.52px;font-family:Calibri;color:#000000;direction:ltr;letter-spacing:0px;line-height:108%;opacity:1&quot;&gt;Registrarse&lt;/font&gt;&lt;font style=&quot;font-size:14.11px;font-family:Themed;color:#000000;direction:ltr;letter-spacing:0px;line-height:108%;opacity:1&quot;&gt;&lt;br/&gt;&lt;/font&gt;&lt;/p&gt;&lt;/div&gt;" tags="Fondo" id="81">
          <mxCell style="verticalAlign=middle;align=center;overflow=width;vsdxID=542;fillColor=#FFFFFF;gradientColor=none;shape=stencil(nZBLDoAgDERP0z3SIyjew0SURgSD+Lu9kMZoXLhwN9O+tukAlrNpJg1SzDH4QW/URgNYgZTkjA4UkwJUgGXng+6DX1zLfmoymdXo17xh5zmRJ6Q42BWCfc2oJfdAr+Yv+AP9Cb7OJ3H/2JG1HNGz/84klThPVCc=);strokeColor=#000000;points=[];labelBackgroundColor=none;rounded=0;html=1;whiteSpace=wrap;" parent="1" vertex="1">
            <mxGeometry x="1544" y="1085" width="161" height="41" as="geometry" />
          </mxCell>
        </UserObject>
        <UserObject label="&lt;div style=&quot;font-size: 1px&quot;&gt;&lt;font style=&quot;font-size:11.29px;font-family:Calibri;color:#000000;direction:ltr;letter-spacing:0px;line-height:120%;opacity:1&quot;&gt;Codigo incorreccto&lt;br/&gt;&lt;/font&gt;&lt;/div&gt;" tags="Diagrama_de_flujo" id="82">
          <mxCell style="verticalAlign=middle;align=center;overflow=width;vsdxID=545;fillColor=#ffffff;gradientColor=none;shape=stencil(UzV2Ls5ILEhVNTIoLinKz04tz0wpyVA1dlE1MsrMy0gtyiwBslSNXVWNndPyi1LTi/JL81Ig/IJEkEoQKze/DGRCBUSfsZ6xJUiTkUElRMDQwADMd4OozsnMQ1INkyRLMR6lGK7AoxbVUFNSTEVzLpCBCJa0zJwcSKgiy6MHI1AIEgXGrgA=);strokeColor=#000000;spacingTop=-1;spacingBottom=-1;spacingLeft=-1;spacingRight=-1;points=[[0.5,0,0],[0.5,0.5,0],[1,0.5,0]];labelBackgroundColor=none;rounded=0;html=1;whiteSpace=wrap;" parent="1" vertex="1">
            <mxGeometry x="1710" y="2773" width="120" height="32" as="geometry" />
          </mxCell>
        </UserObject>
        <UserObject label="&lt;div style=&quot;font-size: 1px&quot;&gt;&lt;font style=&quot;font-size:14.11px;font-family:Calibri;color:#000000;direction:ltr;letter-spacing:0px;line-height:120%;opacity:1&quot;&gt;¿Es un profesor?&lt;br/&gt;&lt;/font&gt;&lt;/div&gt;" tags="Fondo" id="83">
          <mxCell style="verticalAlign=middle;align=center;overflow=width;vsdxID=547;fillColor=#ffffff;gradientColor=none;shape=stencil(nZBNDoUgDIRP0z3SeAKf3sNElEYEg/h3+wdpjIaFC3cz9OukDGC16HZWIMUSvBvVTl3QgD+QkqxWnkJUgDVg1TuvBu9W27Gf20QmNbktJRy8V4q0IsXJthDsG2YN2Qd7DS+4fGGz3Bfyc2Z2axT3J3syhjt6zvNS4hMXivUf);strokeColor=#000000;points=[[0.5,1,0],[1,0.5,0],[0.5,0,0],[0,0.5,0]];labelBackgroundColor=none;rounded=0;html=1;whiteSpace=wrap;" parent="1" vertex="1">
            <mxGeometry x="620" y="1594" width="160" height="54" as="geometry" />
          </mxCell>
        </UserObject>
        <UserObject label="&lt;div style=&quot;font-size: 1px&quot;&gt;&lt;font style=&quot;font-size:11.29px;font-family:Calibri;color:#000000;direction:ltr;letter-spacing:0px;line-height:120%;opacity:1&quot;&gt;No esta en la base de datos&lt;br/&gt;&lt;/font&gt;&lt;/div&gt;" tags="Diagrama_de_flujo" id="84">
          <mxCell style="verticalAlign=middle;align=center;overflow=width;vsdxID=551;fillColor=#ffffff;gradientColor=none;shape=stencil(UzV2Ls5ILEhVNTIoLinKz04tz0wpyVA1dlE1MsrMy0gtyiwBslSNXVWNndPyi1LTi/JL81Ig/IJEkEoQKze/DGRCBUSfsZ6xJUiTkUElRMDQwADMd4OozsnMQ1INkyRLMR6lGK7AoxbVUFNSTEVzLpCBCJa0zJwcSKgiy6MHI1AIEgXGrgA=);strokeColor=#000000;spacingTop=-1;spacingBottom=-1;spacingLeft=-1;spacingRight=-1;points=[[0.5,0,0],[0.5,0.5,0],[1,0.5,0]];labelBackgroundColor=none;rounded=0;html=1;whiteSpace=wrap;" parent="1" vertex="1">
            <mxGeometry x="368" y="1592" width="120" height="32" as="geometry" />
          </mxCell>
        </UserObject>
        <mxCell id="85" parent="1" vertex="1">
          <mxGeometry x="320" y="1609" as="geometry" />
        </mxCell>
        <UserObject label="&lt;div style=&quot;font-size: 1px&quot;&gt;&lt;/div&gt;" tags="Conector" id="86">
          <mxCell style="vsdxID=552;edgeStyle=none;startArrow=none;endArrow=block;startSize=5;endSize=5;strokeColor=#000000;spacingTop=0;spacingBottom=0;spacingLeft=0;spacingRight=0;verticalAlign=middle;html=1;labelBackgroundColor=#ffffff;rounded=0;align=center;exitX=0;exitY=0.53125;exitDx=0;exitDy=0;exitPerimeter=0;" parent="1" source="84" target="85" edge="1">
            <mxGeometry relative="1" as="geometry">
              <mxPoint as="offset" />
              <Array as="points" />
            </mxGeometry>
          </mxCell>
        </UserObject>
        <UserObject label="&lt;div style=&quot;font-size: 1px&quot;&gt;&lt;font style=&quot;font-size:11.29px;font-family:Calibri;color:#000000;direction:ltr;letter-spacing:0px;line-height:120%;opacity:1&quot;&gt;No&lt;br/&gt;&lt;/font&gt;&lt;/div&gt;" tags="Conector" id="87">
          <mxCell style="vsdxID=550;edgeStyle=none;startArrow=none;endArrow=block;startSize=5;endSize=5;strokeColor=#000000;spacingTop=0;spacingBottom=0;spacingLeft=0;spacingRight=0;verticalAlign=middle;html=1;labelBackgroundColor=#ffffff;rounded=0;align=center;exitX=0;exitY=0.5;exitDx=0;exitDy=0;exitPerimeter=0;entryX=1;entryY=0.53125;entryDx=0;entryDy=0;entryPerimeter=0;" parent="1" source="83" target="84" edge="1">
            <mxGeometry relative="1" as="geometry">
              <mxPoint x="-1" as="offset" />
              <Array as="points">
                <mxPoint x="620" y="1608.76" />
              </Array>
            </mxGeometry>
          </mxCell>
        </UserObject>
        <UserObject label="&lt;div style=&quot;font-size: 1px&quot;&gt;&lt;font style=&quot;font-size:11.29px;font-family:Calibri;color:#000000;direction:ltr;letter-spacing:0px;line-height:120%;opacity:1&quot;&gt;Si&lt;br/&gt;&lt;/font&gt;&lt;/div&gt;" tags="Conector" id="88">
          <mxCell style="vsdxID=549;edgeStyle=none;startArrow=none;endArrow=block;startSize=5;endSize=5;strokeColor=#000000;spacingTop=0;spacingBottom=0;spacingLeft=0;spacingRight=0;verticalAlign=middle;html=1;labelBackgroundColor=#ffffff;rounded=0;align=center;exitX=0.5;exitY=1;exitDx=0;exitDy=0;exitPerimeter=0;entryX=0.5185185185185185;entryY=0;entryDx=0;entryDy=0;entryPerimeter=0;" parent="1" source="83" target="52" edge="1">
            <mxGeometry relative="1" as="geometry">
              <mxPoint x="10" y="-1" as="offset" />
              <Array as="points" />
            </mxGeometry>
          </mxCell>
        </UserObject>
        <UserObject label="&lt;div style=&quot;font-size: 1px&quot;&gt;&lt;/div&gt;" tags="Conector" id="89">
          <mxCell style="vsdxID=546;edgeStyle=none;startArrow=none;endArrow=block;startSize=5;endSize=5;strokeColor=#000000;spacingTop=0;spacingBottom=0;spacingLeft=0;spacingRight=0;verticalAlign=middle;html=1;labelBackgroundColor=#ffffff;rounded=0;align=center;exitX=1;exitY=0.5;exitDx=0;exitDy=0;exitPerimeter=0;entryX=0;entryY=0.5;entryDx=0;entryDy=0;entryPerimeter=0;" parent="1" source="82" target="43" edge="1">
            <mxGeometry relative="1" as="geometry">
              <mxPoint as="offset" />
              <Array as="points" />
            </mxGeometry>
          </mxCell>
        </UserObject>
        <UserObject label="" tags="Conector" id="90">
          <mxCell style="vsdxID=543;edgeStyle=none;startArrow=none;endArrow=block;startSize=5;endSize=5;strokeColor=#000000;spacingTop=0;spacingBottom=0;spacingLeft=0;spacingRight=0;verticalAlign=middle;html=1;labelBackgroundColor=#ffffff;rounded=0;exitX=0.6273291925465838;exitY=1;exitDx=0;exitDy=0;exitPerimeter=0;entryX=0.5;entryY=0;entryDx=0;entryDy=0;entryPerimeter=0;" parent="1" source="81" target="18" edge="1">
            <mxGeometry relative="1" as="geometry">
              <mxPoint x="10" as="offset" />
              <Array as="points" />
            </mxGeometry>
          </mxCell>
        </UserObject>
        <UserObject label="" tags="Conector" id="91">
          <mxCell style="vsdxID=541;edgeStyle=none;startArrow=none;endArrow=block;startSize=5;endSize=5;strokeColor=#000000;spacingTop=0;spacingBottom=0;spacingLeft=0;spacingRight=0;verticalAlign=middle;html=1;labelBackgroundColor=#ffffff;rounded=0;exitX=0.5031055900621118;exitY=1;exitDx=0;exitDy=0;exitPerimeter=0;entryX=0.5;entryY=0;entryDx=0;entryDy=0;entryPerimeter=0;" parent="1" source="80" target="13" edge="1">
            <mxGeometry relative="1" as="geometry">
              <mxPoint x="10" as="offset" />
              <Array as="points" />
            </mxGeometry>
          </mxCell>
        </UserObject>
        <UserObject label="" tags="Conector" id="92">
          <mxCell style="vsdxID=538;edgeStyle=none;startArrow=none;endArrow=block;startSize=5;endSize=5;strokeColor=#000000;spacingTop=0;spacingBottom=0;spacingLeft=0;spacingRight=0;verticalAlign=middle;html=1;labelBackgroundColor=#ffffff;rounded=0;exitX=0.4968944099378882;exitY=1;exitDx=0;exitDy=0;exitPerimeter=0;entryX=0.5;entryY=0;entryDx=0;entryDy=0;entryPerimeter=0;" parent="1" source="79" target="10" edge="1">
            <mxGeometry relative="1" as="geometry">
              <mxPoint x="9" as="offset" />
              <Array as="points" />
            </mxGeometry>
          </mxCell>
        </UserObject>
        <UserObject label="" tags="Conector" id="93">
          <mxCell style="vsdxID=535;edgeStyle=none;startArrow=none;endArrow=block;startSize=5;endSize=5;strokeColor=#000000;spacingTop=0;spacingBottom=0;spacingLeft=0;spacingRight=0;verticalAlign=middle;html=1;labelBackgroundColor=#ffffff;rounded=0;exitX=0.95;exitY=0.5;exitDx=0;exitDy=0;exitPerimeter=0;entryX=0.5;entryY=0;entryDx=0;entryDy=0;entryPerimeter=0;" parent="1" source="75" target="65" edge="1">
            <mxGeometry relative="1" as="geometry">
              <mxPoint as="offset" />
              <Array as="points">
                <mxPoint x="1101.88" y="947" />
              </Array>
            </mxGeometry>
          </mxCell>
        </UserObject>
        <UserObject label="" tags="Conector" id="94">
          <mxCell style="vsdxID=534;edgeStyle=none;startArrow=none;endArrow=block;startSize=5;endSize=5;strokeColor=#000000;spacingTop=0;spacingBottom=0;spacingLeft=0;spacingRight=0;verticalAlign=middle;html=1;labelBackgroundColor=#ffffff;rounded=0;exitX=0.5;exitY=1;exitDx=0;exitDy=0;exitPerimeter=0;entryX=0.55;entryY=0;entryDx=0;entryDy=0;entryPerimeter=0;" parent="1" source="78" target="75" edge="1">
            <mxGeometry relative="1" as="geometry">
              <mxPoint x="6" as="offset" />
              <Array as="points">
                <mxPoint x="996" y="915" />
                <mxPoint x="1003" y="915" />
              </Array>
            </mxGeometry>
          </mxCell>
        </UserObject>
        <UserObject label="" tags="Conector" id="95">
          <mxCell style="vsdxID=369;edgeStyle=none;startArrow=none;endArrow=block;startSize=5;endSize=5;strokeColor=#000000;spacingTop=0;spacingBottom=0;spacingLeft=0;spacingRight=0;verticalAlign=middle;html=1;labelBackgroundColor=#ffffff;rounded=0;exitX=0.95;exitY=0.5;exitDx=0;exitDy=0;exitPerimeter=0;entryX=0;entryY=0.5121951219512195;entryDx=0;entryDy=0;entryPerimeter=0;" parent="1" source="74" target="78" edge="1">
            <mxGeometry relative="1" as="geometry">
              <mxPoint x="-1" as="offset" />
              <Array as="points">
                <mxPoint x="923" y="882" />
                <mxPoint x="923" y="879.76" />
              </Array>
            </mxGeometry>
          </mxCell>
        </UserObject>
        <UserObject label="" tags="Conector" id="96">
          <mxCell style="vsdxID=368;edgeStyle=none;startArrow=none;endArrow=block;startSize=5;endSize=5;strokeColor=#000000;spacingTop=0;spacingBottom=0;spacingLeft=0;spacingRight=0;verticalAlign=middle;html=1;labelBackgroundColor=#ffffff;rounded=0;exitX=0.5;exitY=0;exitDx=0;exitDy=0;exitPerimeter=0;entryX=0.45;entryY=1;entryDx=0;entryDy=0;entryPerimeter=0;" parent="1" source="77" target="74" edge="1">
            <mxGeometry relative="1" as="geometry">
              <mxPoint x="9" as="offset" />
              <Array as="points">
                <mxPoint x="830" y="918" />
                <mxPoint x="831" y="918" />
              </Array>
            </mxGeometry>
          </mxCell>
        </UserObject>
        <UserObject label="" tags="Conector" id="97">
          <mxCell style="vsdxID=367;edgeStyle=none;startArrow=none;endArrow=block;startSize=5;endSize=5;strokeColor=#000000;spacingTop=0;spacingBottom=0;spacingLeft=0;spacingRight=0;verticalAlign=middle;html=1;labelBackgroundColor=#ffffff;rounded=0;exitX=0.95;exitY=0.5;exitDx=0;exitDy=0;exitPerimeter=0;entryX=0;entryY=0.5;entryDx=0;entryDy=0;entryPerimeter=0;" parent="1" source="73" target="77" edge="1">
            <mxGeometry relative="1" as="geometry">
              <mxPoint as="offset" />
              <Array as="points">
                <mxPoint x="757.5" y="962" />
                <mxPoint x="757.5" y="949.06" />
              </Array>
            </mxGeometry>
          </mxCell>
        </UserObject>
        <UserObject label="" tags="Conector" id="98">
          <mxCell style="vsdxID=366;edgeStyle=none;startArrow=none;endArrow=block;startSize=5;endSize=5;strokeColor=#000000;spacingTop=0;spacingBottom=0;spacingLeft=0;spacingRight=0;verticalAlign=middle;html=1;labelBackgroundColor=#ffffff;rounded=0;exitX=0.5;exitY=1;exitDx=0;exitDy=0;exitPerimeter=0;entryX=0.55;entryY=0;entryDx=0;entryDy=0;entryPerimeter=0;" parent="1" source="76" target="73" edge="1">
            <mxGeometry relative="1" as="geometry">
              <mxPoint x="6" as="offset" />
              <Array as="points">
                <mxPoint x="680" y="919.5" />
                <mxPoint x="687" y="919.5" />
              </Array>
            </mxGeometry>
          </mxCell>
        </UserObject>
        <mxCell id="99" parent="1" vertex="1">
          <mxGeometry x="1120" y="2029" as="geometry" />
        </mxCell>
        <UserObject label="" tags="Conector" id="100">
          <mxCell style="vsdxID=197;edgeStyle=none;startArrow=none;endArrow=block;startSize=5;endSize=5;strokeColor=#000000;spacingTop=0;spacingBottom=0;spacingLeft=0;spacingRight=0;verticalAlign=middle;html=1;labelBackgroundColor=#ffffff;rounded=0;exitX=0.5;exitY=0;exitDx=0;exitDy=0;exitPerimeter=0;" parent="1" source="72" target="99" edge="1">
            <mxGeometry relative="1" as="geometry">
              <mxPoint as="offset" />
              <Array as="points">
                <mxPoint x="948" y="2028.66" />
              </Array>
            </mxGeometry>
          </mxCell>
        </UserObject>
        <UserObject label="&lt;div style=&quot;font-size: 1px&quot;&gt;&lt;/div&gt;" tags="Conector" id="101">
          <mxCell style="vsdxID=195;edgeStyle=none;startArrow=none;endArrow=block;startSize=5;endSize=5;strokeColor=#000000;spacingTop=0;spacingBottom=0;spacingLeft=0;spacingRight=0;verticalAlign=middle;html=1;labelBackgroundColor=#ffffff;rounded=0;align=center;exitX=0;exitY=0.5;exitDx=0;exitDy=0;exitPerimeter=0;entryX=0.95;entryY=0.5;entryDx=0;entryDy=0;entryPerimeter=0;" parent="1" source="71" target="48" edge="1">
            <mxGeometry relative="1" as="geometry">
              <mxPoint x="-1" as="offset" />
              <Array as="points">
                <mxPoint x="1195" y="2127" />
                <mxPoint x="1195" y="2128.98" />
              </Array>
            </mxGeometry>
          </mxCell>
        </UserObject>
        <mxCell id="102" parent="1" vertex="1">
          <mxGeometry x="1119" y="1737" as="geometry" />
        </mxCell>
        <UserObject label="&lt;div style=&quot;font-size: 1px&quot;&gt;&lt;/div&gt;" tags="Conector" id="103">
          <mxCell style="vsdxID=193;edgeStyle=none;startArrow=none;endArrow=block;startSize=5;endSize=5;strokeColor=#000000;spacingTop=0;spacingBottom=0;spacingLeft=0;spacingRight=0;verticalAlign=middle;html=1;labelBackgroundColor=#ffffff;rounded=0;align=center;exitX=0.5;exitY=0;exitDx=0;exitDy=0;exitPerimeter=0;" parent="1" source="70" target="102" edge="1">
            <mxGeometry relative="1" as="geometry">
              <mxPoint as="offset" />
              <Array as="points">
                <mxPoint x="992" y="1736.57" />
              </Array>
            </mxGeometry>
          </mxCell>
        </UserObject>
        <mxCell id="104" parent="1" vertex="1">
          <mxGeometry x="560" y="529" as="geometry" />
        </mxCell>
        <UserObject label="&lt;div style=&quot;font-size: 1px&quot;&gt;&lt;/div&gt;" tags="Conector" id="105">
          <mxCell style="vsdxID=190;edgeStyle=none;startArrow=none;endArrow=block;startSize=5;endSize=5;strokeColor=#000000;spacingTop=0;spacingBottom=0;spacingLeft=0;spacingRight=0;verticalAlign=middle;html=1;labelBackgroundColor=#ffffff;rounded=0;align=center;exitX=0.5;exitY=0;exitDx=0;exitDy=0;exitPerimeter=0;" parent="1" source="69" target="104" edge="1">
            <mxGeometry relative="1" as="geometry">
              <mxPoint x="10" as="offset" />
              <Array as="points" />
            </mxGeometry>
          </mxCell>
        </UserObject>
        <UserObject label="&lt;div style=&quot;font-size: 1px&quot;&gt;&lt;/div&gt;" tags="Conector" id="106">
          <mxCell style="vsdxID=188;edgeStyle=none;startArrow=none;endArrow=block;startSize=5;endSize=5;strokeColor=#000000;spacingTop=0;spacingBottom=0;spacingLeft=0;spacingRight=0;verticalAlign=middle;html=1;labelBackgroundColor=#ffffff;rounded=0;align=center;exitX=0.95;exitY=0.5161290322580645;exitDx=0;exitDy=0;exitPerimeter=0;entryX=0.5;entryY=0;entryDx=0;entryDy=0;entryPerimeter=0;" parent="1" source="68" target="35" edge="1">
            <mxGeometry relative="1" as="geometry">
              <mxPoint as="offset" />
              <Array as="points">
                <mxPoint x="1607.44" y="2128" />
              </Array>
            </mxGeometry>
          </mxCell>
        </UserObject>
        <mxCell id="107" parent="1" vertex="1">
          <mxGeometry x="680" y="521" as="geometry" />
        </mxCell>
        <UserObject label="&lt;div style=&quot;font-size: 1px&quot;&gt;&lt;font style=&quot;font-size:11.29px;font-family:Calibri;color:#000000;direction:ltr;letter-spacing:0px;line-height:120%;opacity:1&quot;&gt;Iniciar sesión&lt;br/&gt;&lt;/font&gt;&lt;/div&gt;" tags="Conector" id="108">
          <mxCell style="vsdxID=184;edgeStyle=none;startArrow=none;endArrow=block;startSize=5;endSize=5;strokeColor=#000000;spacingTop=0;spacingBottom=0;spacingLeft=0;spacingRight=0;verticalAlign=middle;html=1;labelBackgroundColor=#ffffff;rounded=0;align=center;exitX=1;exitY=0.5;exitDx=0;exitDy=0;exitPerimeter=0;" parent="1" source="35" target="107" edge="1">
            <mxGeometry relative="1" as="geometry">
              <mxPoint y="1100" as="offset" />
              <Array as="points">
                <mxPoint x="1819.56" y="2266" />
                <mxPoint x="1819.56" y="520.65" />
              </Array>
            </mxGeometry>
          </mxCell>
        </UserObject>
        <UserObject label="&lt;div style=&quot;font-size: 1px&quot;&gt;&lt;/div&gt;" tags="Conector" id="109">
          <mxCell style="vsdxID=175;edgeStyle=none;startArrow=none;endArrow=block;startSize=5;endSize=5;strokeColor=#000000;spacingTop=0;spacingBottom=0;spacingLeft=0;spacingRight=0;verticalAlign=middle;html=1;labelBackgroundColor=#ffffff;rounded=0;align=center;exitX=0.5;exitY=1;exitDx=0;exitDy=0;exitPerimeter=0;entryX=0.4968944099378882;entryY=0;entryDx=0;entryDy=0;entryPerimeter=0;" parent="1" source="65" target="79" edge="1">
            <mxGeometry relative="1" as="geometry">
              <mxPoint x="-1" as="offset" />
              <Array as="points">
                <mxPoint x="1101" y="1042" />
                <mxPoint x="719.68" y="1042" />
              </Array>
            </mxGeometry>
          </mxCell>
        </UserObject>
        <UserObject label="&lt;div style=&quot;font-size: 1px&quot;&gt;&lt;/div&gt;" tags="Conector" id="110">
          <mxCell style="vsdxID=168;edgeStyle=none;startArrow=none;endArrow=block;startSize=5;endSize=5;strokeColor=#000000;spacingTop=0;spacingBottom=0;spacingLeft=0;spacingRight=0;verticalAlign=middle;html=1;labelBackgroundColor=#ffffff;rounded=0;align=center;exitX=0.45132743362831856;exitY=1;exitDx=0;exitDy=0;exitPerimeter=0;entryX=0.5;entryY=0;entryDx=0;entryDy=0;entryPerimeter=0;" parent="1" source="64" target="44" edge="1">
            <mxGeometry relative="1" as="geometry">
              <mxPoint x="5" as="offset" />
              <Array as="points">
                <mxPoint x="1911" y="2879" />
                <mxPoint x="1919.96" y="2879" />
              </Array>
            </mxGeometry>
          </mxCell>
        </UserObject>
        <UserObject label="&lt;div style=&quot;font-size: 1px&quot;&gt;&lt;/div&gt;" tags="Conector" id="111">
          <mxCell style="vsdxID=166;edgeStyle=none;startArrow=none;endArrow=block;startSize=5;endSize=5;strokeColor=#000000;spacingTop=0;spacingBottom=0;spacingLeft=0;spacingRight=0;verticalAlign=middle;html=1;labelBackgroundColor=#ffffff;rounded=0;align=center;exitX=0.45;exitY=1;exitDx=0;exitDy=0;exitPerimeter=0;entryX=0.5027027027027027;entryY=0;entryDx=0;entryDy=0;entryPerimeter=0;" parent="1" source="63" target="67" edge="1">
            <mxGeometry relative="1" as="geometry">
              <mxPoint x="7" as="offset" />
              <Array as="points">
                <mxPoint x="1484" y="1983" />
                <mxPoint x="1490" y="1983" />
              </Array>
            </mxGeometry>
          </mxCell>
        </UserObject>
        <UserObject label="&lt;div style=&quot;font-size: 1px&quot;&gt;&lt;/div&gt;" tags="Conector" id="112">
          <mxCell style="vsdxID=161;edgeStyle=none;startArrow=none;endArrow=block;startSize=5;endSize=5;strokeColor=#000000;spacingTop=0;spacingBottom=0;spacingLeft=0;spacingRight=0;verticalAlign=middle;html=1;labelBackgroundColor=#ffffff;rounded=0;align=center;exitX=0.45;exitY=1.032258064516129;exitDx=0;exitDy=0;exitPerimeter=0;entryX=0.5;entryY=0;entryDx=0;entryDy=0;entryPerimeter=0;" parent="1" source="61" target="42" edge="1">
            <mxGeometry relative="1" as="geometry">
              <mxPoint x="7" as="offset" />
              <Array as="points">
                <mxPoint x="1594" y="2747" />
                <mxPoint x="1600" y="2747" />
              </Array>
            </mxGeometry>
          </mxCell>
        </UserObject>
        <UserObject label="&lt;div style=&quot;font-size: 1px&quot;&gt;&lt;/div&gt;" tags="Conector" id="113">
          <mxCell style="vsdxID=157;edgeStyle=none;startArrow=none;endArrow=block;startSize=5;endSize=5;strokeColor=#000000;spacingTop=0;spacingBottom=0;spacingLeft=0;spacingRight=0;verticalAlign=middle;html=1;labelBackgroundColor=#ffffff;rounded=0;align=center;exitX=0.45;exitY=1.032258064516129;exitDx=0;exitDy=0;exitPerimeter=0;entryX=0.5;entryY=0;entryDx=0;entryDy=0;entryPerimeter=0;" parent="1" source="59" target="50" edge="1">
            <mxGeometry relative="1" as="geometry">
              <mxPoint x="-9" as="offset" />
              <Array as="points">
                <mxPoint x="1242" y="2224" />
                <mxPoint x="1239.12" y="2224" />
              </Array>
            </mxGeometry>
          </mxCell>
        </UserObject>
        <UserObject label="&lt;div style=&quot;font-size: 1px&quot;&gt;&lt;/div&gt;" tags="Conector" id="114">
          <mxCell style="vsdxID=155;edgeStyle=none;startArrow=none;endArrow=block;startSize=5;endSize=5;strokeColor=#000000;spacingTop=0;spacingBottom=0;spacingLeft=0;spacingRight=0;verticalAlign=middle;html=1;labelBackgroundColor=#ffffff;rounded=0;align=center;exitX=1;exitY=0.5;exitDx=0;exitDy=0;exitPerimeter=0;entryX=0.05;entryY=0.5161290322580645;entryDx=0;entryDy=0;entryPerimeter=0;" parent="1" source="58" target="59" edge="1">
            <mxGeometry relative="1" as="geometry">
              <mxPoint as="offset" />
              <Array as="points">
                <mxPoint x="1173" y="2192" />
                <mxPoint x="1173" y="2192.63" />
              </Array>
            </mxGeometry>
          </mxCell>
        </UserObject>
        <UserObject label="&lt;div style=&quot;font-size: 1px&quot;&gt;&lt;/div&gt;" tags="Conector" id="115">
          <mxCell style="vsdxID=153;edgeStyle=none;startArrow=none;endArrow=block;startSize=5;endSize=5;strokeColor=#000000;spacingTop=0;spacingBottom=0;spacingLeft=0;spacingRight=0;verticalAlign=middle;html=1;labelBackgroundColor=#ffffff;rounded=0;align=center;exitX=0.45;exitY=1.032258064516129;exitDx=0;exitDy=0;exitPerimeter=0;entryX=0.5;entryY=0;entryDx=0;entryDy=0;entryPerimeter=0;" parent="1" source="57" target="46" edge="1">
            <mxGeometry relative="1" as="geometry">
              <mxPoint x="7" as="offset" />
              <Array as="points">
                <mxPoint x="1113" y="1940" />
                <mxPoint x="1119" y="1940" />
              </Array>
            </mxGeometry>
          </mxCell>
        </UserObject>
        <mxCell id="116" parent="1" vertex="1">
          <mxGeometry x="1100" y="1289" as="geometry" />
        </mxCell>
        <UserObject label="&lt;div style=&quot;font-size: 1px&quot;&gt;&lt;font style=&quot;font-size:11.29px;font-family:Calibri;color:#000000;direction:ltr;letter-spacing:0px;line-height:120%;opacity:1&quot;&gt;NO&lt;br/&gt;&lt;/font&gt;&lt;/div&gt;" tags="Conector" id="117">
          <mxCell style="vsdxID=149;edgeStyle=none;startArrow=none;endArrow=block;startSize=5;endSize=5;strokeColor=#000000;spacingTop=0;spacingBottom=0;spacingLeft=0;spacingRight=0;verticalAlign=middle;html=1;labelBackgroundColor=#ffffff;rounded=0;align=center;exitX=0;exitY=0.5;exitDx=0;exitDy=0;exitPerimeter=0;" parent="1" source="55" target="116" edge="1">
            <mxGeometry relative="1" as="geometry">
              <mxPoint x="2" y="150" as="offset" />
              <Array as="points">
                <mxPoint x="996.71" y="1530" />
                <mxPoint x="996.71" y="1288.82" />
              </Array>
            </mxGeometry>
          </mxCell>
        </UserObject>
        <UserObject label="&lt;div style=&quot;font-size: 1px&quot;&gt;&lt;/div&gt;" tags="Conector" id="118">
          <mxCell style="vsdxID=142;edgeStyle=none;startArrow=none;endArrow=block;startSize=5;endSize=5;strokeColor=#000000;spacingTop=0;spacingBottom=0;spacingLeft=0;spacingRight=0;verticalAlign=middle;html=1;labelBackgroundColor=#ffffff;rounded=0;align=center;exitX=0.5714285714285714;exitY=1;exitDx=0;exitDy=0;exitPerimeter=0;entryX=0.5;entryY=0;entryDx=0;entryDy=0;entryPerimeter=0;" parent="1" source="11" target="83" edge="1">
            <mxGeometry relative="1" as="geometry">
              <mxPoint x="10" as="offset" />
              <Array as="points" />
            </mxGeometry>
          </mxCell>
        </UserObject>
        <UserObject label="" tags="Conector" id="119">
          <mxCell style="vsdxID=134;edgeStyle=none;startArrow=none;endArrow=block;startSize=5;endSize=5;strokeColor=#000000;spacingTop=0;spacingBottom=0;spacingLeft=0;spacingRight=0;verticalAlign=middle;html=1;labelBackgroundColor=#ffffff;rounded=0;exitX=0.45;exitY=1.0277777777777777;exitDx=0;exitDy=0;exitPerimeter=0;entryX=0.5;entryY=0;entryDx=0;entryDy=0;entryPerimeter=0;" parent="1" source="48" target="58" edge="1">
            <mxGeometry relative="1" as="geometry">
              <mxPoint x="6" as="offset" />
              <Array as="points">
                <mxPoint x="1091" y="2163" />
                <mxPoint x="1098" y="2163" />
              </Array>
            </mxGeometry>
          </mxCell>
        </UserObject>
        <UserObject label="&lt;div style=&quot;font-size: 1px&quot;&gt;&lt;font style=&quot;font-size:11.29px;font-family:Calibri;color:#000000;direction:ltr;letter-spacing:0px;line-height:120%;opacity:1&quot;&gt;NO&lt;br/&gt;&lt;/font&gt;&lt;/div&gt;" tags="Conector" id="120">
          <mxCell style="vsdxID=133;edgeStyle=none;startArrow=none;endArrow=block;startSize=5;endSize=5;strokeColor=#000000;spacingTop=0;spacingBottom=0;spacingLeft=0;spacingRight=0;verticalAlign=middle;html=1;labelBackgroundColor=#ffffff;rounded=0;align=center;exitX=0;exitY=0.4954128440366973;exitDx=0;exitDy=0;exitPerimeter=0;entryX=0.5;entryY=1.03125;entryDx=0;entryDy=0;entryPerimeter=0;" parent="1" source="50" target="72" edge="1">
            <mxGeometry relative="1" as="geometry">
              <mxPoint x="141" y="1" as="offset" />
              <Array as="points">
                <mxPoint x="948.88" y="2303" />
              </Array>
            </mxGeometry>
          </mxCell>
        </UserObject>
        <UserObject label="&lt;div style=&quot;font-size: 1px&quot;&gt;&lt;font style=&quot;font-size:11.29px;font-family:Calibri;color:#000000;direction:ltr;letter-spacing:0px;line-height:120%;opacity:1&quot;&gt;SI&lt;br/&gt;&lt;/font&gt;&lt;/div&gt;" tags="Conector" id="121">
          <mxCell style="vsdxID=132;edgeStyle=none;startArrow=none;endArrow=block;startSize=5;endSize=5;strokeColor=#000000;spacingTop=0;spacingBottom=0;spacingLeft=0;spacingRight=0;verticalAlign=middle;html=1;labelBackgroundColor=#ffffff;rounded=0;align=center;exitX=0.5;exitY=1;exitDx=0;exitDy=0;exitPerimeter=0;entryX=1;entryY=0.4878048780487805;entryDx=0;entryDy=0;entryPerimeter=0;" parent="1" source="50" target="51" edge="1">
            <mxGeometry relative="1" as="geometry">
              <mxPoint as="offset" />
              <Array as="points">
                <mxPoint x="1240" y="2387.66" />
              </Array>
            </mxGeometry>
          </mxCell>
        </UserObject>
        <UserObject label="" tags="Conector" id="122">
          <mxCell style="vsdxID=130;edgeStyle=none;startArrow=none;endArrow=block;startSize=5;endSize=5;strokeColor=#000000;spacingTop=0;spacingBottom=0;spacingLeft=0;spacingRight=0;verticalAlign=middle;html=1;labelBackgroundColor=#ffffff;rounded=0;exitX=0.45;exitY=1.0277777777777777;exitDx=0;exitDy=0;exitPerimeter=0;entryX=0.5;entryY=0;entryDx=0;entryDy=0;entryPerimeter=0;" parent="1" source="49" target="71" edge="1">
            <mxGeometry relative="1" as="geometry">
              <mxPoint x="-9" as="offset" />
              <Array as="points">
                <mxPoint x="1273" y="2095.5" />
                <mxPoint x="1270" y="2095.5" />
              </Array>
            </mxGeometry>
          </mxCell>
        </UserObject>
        <UserObject label="" tags="Conector" id="123">
          <mxCell style="vsdxID=129;edgeStyle=none;startArrow=none;endArrow=block;startSize=5;endSize=5;strokeColor=#000000;spacingTop=0;spacingBottom=0;spacingLeft=0;spacingRight=0;verticalAlign=middle;html=1;labelBackgroundColor=#ffffff;rounded=0;exitX=1;exitY=0.53125;exitDx=0;exitDy=0;exitPerimeter=0;entryX=0.05;entryY=0.5277777777777778;entryDx=0;entryDy=0;entryPerimeter=0;" parent="1" source="47" target="49" edge="1">
            <mxGeometry relative="1" as="geometry">
              <mxPoint as="offset" />
              <Array as="points">
                <mxPoint x="1195" y="2068" />
                <mxPoint x="1195" y="2069.98" />
              </Array>
            </mxGeometry>
          </mxCell>
        </UserObject>
        <UserObject label="&lt;div style=&quot;font-size: 1px&quot;&gt;&lt;font style=&quot;font-size:11.29px;font-family:Calibri;color:#000000;direction:ltr;letter-spacing:0px;line-height:120%;opacity:1&quot;&gt;NO&lt;br/&gt;&lt;/font&gt;&lt;/div&gt;" tags="Conector" id="124">
          <mxCell style="vsdxID=124;edgeStyle=none;startArrow=none;endArrow=block;startSize=5;endSize=5;strokeColor=#000000;spacingTop=0;spacingBottom=0;spacingLeft=0;spacingRight=0;verticalAlign=middle;html=1;labelBackgroundColor=#ffffff;rounded=0;align=center;exitX=0;exitY=0.5121951219512195;exitDx=0;exitDy=0;exitPerimeter=0;entryX=0.5;entryY=1.03125;entryDx=0;entryDy=0;entryPerimeter=0;" parent="1" source="46" target="70" edge="1">
            <mxGeometry relative="1" as="geometry">
              <mxPoint y="-1" as="offset" />
              <Array as="points">
                <mxPoint x="991.56" y="1978" />
              </Array>
            </mxGeometry>
          </mxCell>
        </UserObject>
        <UserObject label="" tags="Conector" id="125">
          <mxCell style="vsdxID=123;edgeStyle=none;startArrow=none;endArrow=block;startSize=5;endSize=5;strokeColor=#000000;spacingTop=0;spacingBottom=0;spacingLeft=0;spacingRight=0;verticalAlign=middle;html=1;labelBackgroundColor=#ffffff;rounded=0;exitX=0.45;exitY=1;exitDx=0;exitDy=0;exitPerimeter=0;entryX=1;entryY=0.5;entryDx=0;entryDy=0;entryPerimeter=0;" parent="1" source="16" target="56" edge="1">
            <mxGeometry relative="1" as="geometry">
              <mxPoint as="offset" />
              <Array as="points">
                <mxPoint x="1259" y="1843.97" />
              </Array>
            </mxGeometry>
          </mxCell>
        </UserObject>
        <UserObject label="&lt;div style=&quot;font-size: 1px&quot;&gt;&lt;/div&gt;" tags="Conector" id="126">
          <mxCell style="vsdxID=121;edgeStyle=none;startArrow=none;endArrow=block;startSize=5;endSize=5;strokeColor=#000000;spacingTop=0;spacingBottom=0;spacingLeft=0;spacingRight=0;verticalAlign=middle;html=1;labelBackgroundColor=#ffffff;rounded=0;align=center;exitX=0.5;exitY=1;exitDx=0;exitDy=0;exitPerimeter=0;entryX=0.5486725663716814;entryY=0;entryDx=0;entryDy=0;entryPerimeter=0;" parent="1" source="43" target="64" edge="1">
            <mxGeometry relative="1" as="geometry">
              <mxPoint x="8" as="offset" />
              <Array as="points">
                <mxPoint x="1920" y="2820" />
                <mxPoint x="1922.38" y="2820" />
              </Array>
            </mxGeometry>
          </mxCell>
        </UserObject>
        <mxCell id="127" parent="1" vertex="1">
          <mxGeometry x="1605" y="2469" as="geometry" />
        </mxCell>
        <UserObject label="&lt;div style=&quot;font-size: 1px&quot;&gt;&lt;font style=&quot;font-size:11.29px;font-family:Calibri;color:#000000;direction:ltr;letter-spacing:0px;line-height:120%;opacity:1&quot;&gt;NO&lt;br/&gt;&lt;/font&gt;&lt;/div&gt;" tags="Conector" id="128">
          <mxCell style="vsdxID=116;edgeStyle=none;startArrow=none;endArrow=block;startSize=5;endSize=5;strokeColor=#000000;spacingTop=0;spacingBottom=0;spacingLeft=0;spacingRight=0;verticalAlign=middle;html=1;labelBackgroundColor=#ffffff;rounded=0;align=center;exitX=1;exitY=0.5185185185185185;exitDx=0;exitDy=0;exitPerimeter=0;" parent="1" source="44" target="127" edge="1">
            <mxGeometry relative="1" as="geometry">
              <mxPoint x="-1" y="300" as="offset" />
              <Array as="points">
                <mxPoint x="2015" y="2922" />
                <mxPoint x="2015" y="2469.2" />
              </Array>
            </mxGeometry>
          </mxCell>
        </UserObject>
        <mxCell id="129" parent="1" vertex="1">
          <mxGeometry x="1608" y="2389" as="geometry" />
        </mxCell>
        <UserObject label="&lt;div style=&quot;font-size: 1px&quot;&gt;&lt;font style=&quot;font-size:11.29px;font-family:Calibri;color:#000000;direction:ltr;letter-spacing:0px;line-height:120%;opacity:1&quot;&gt;SI&lt;br/&gt;&lt;/font&gt;&lt;/div&gt;" tags="Conector" id="130">
          <mxCell style="vsdxID=113;edgeStyle=none;startArrow=none;endArrow=block;startSize=5;endSize=5;strokeColor=#000000;spacingTop=0;spacingBottom=0;spacingLeft=0;spacingRight=0;verticalAlign=middle;html=1;labelBackgroundColor=#ffffff;rounded=0;align=center;exitX=0.5;exitY=1.0185185185185186;exitDx=0;exitDy=0;exitPerimeter=0;" parent="1" source="44" target="129" edge="1">
            <mxGeometry relative="1" as="geometry">
              <mxPoint x="-25" y="436" as="offset" />
              <Array as="points">
                <mxPoint x="1920" y="2964" />
                <mxPoint x="2100" y="2964" />
                <mxPoint x="2100" y="2388.9" />
              </Array>
            </mxGeometry>
          </mxCell>
        </UserObject>
        <UserObject label="&lt;div style=&quot;font-size: 1px&quot;&gt;&lt;/div&gt;" tags="Conector" id="131">
          <mxCell style="vsdxID=110;edgeStyle=none;startArrow=none;endArrow=block;startSize=5;endSize=5;strokeColor=#000000;spacingTop=0;spacingBottom=0;spacingLeft=0;spacingRight=0;verticalAlign=middle;html=1;labelBackgroundColor=#ffffff;rounded=0;align=center;exitX=0.45;exitY=1.0277777777777777;exitDx=0;exitDy=0;exitPerimeter=0;entryX=0.5;entryY=0;entryDx=0;entryDy=0;entryPerimeter=0;" parent="1" source="40" target="60" edge="1">
            <mxGeometry relative="1" as="geometry">
              <mxPoint x="6" as="offset" />
              <Array as="points">
                <mxPoint x="1598" y="2623" />
                <mxPoint x="1605" y="2623" />
              </Array>
            </mxGeometry>
          </mxCell>
        </UserObject>
        <UserObject label="&lt;div style=&quot;font-size: 1px&quot;&gt;&lt;font style=&quot;font-size:11.29px;font-family:Calibri;color:#000000;direction:ltr;letter-spacing:0px;line-height:120%;opacity:1&quot;&gt;NO&lt;br/&gt;&lt;/font&gt;&lt;/div&gt;" tags="Conector" id="132">
          <mxCell style="vsdxID=108;edgeStyle=none;startArrow=none;endArrow=block;startSize=5;endSize=5;strokeColor=#000000;spacingTop=0;spacingBottom=0;spacingLeft=0;spacingRight=0;verticalAlign=middle;html=1;labelBackgroundColor=#ffffff;rounded=0;align=center;exitX=1;exitY=0.5;exitDx=0;exitDy=0;exitPerimeter=0;entryX=0;entryY=0.5;entryDx=0;entryDy=0;entryPerimeter=0;" parent="1" source="42" target="82" edge="1">
            <mxGeometry relative="1" as="geometry">
              <mxPoint x="-11" y="-1" as="offset" />
              <Array as="points" />
            </mxGeometry>
          </mxCell>
        </UserObject>
        <UserObject label="&lt;div style=&quot;font-size: 1px&quot;&gt;&lt;/div&gt;" tags="Conector" id="133">
          <mxCell style="vsdxID=105;edgeStyle=none;startArrow=none;endArrow=block;startSize=5;endSize=5;strokeColor=#000000;spacingTop=0;spacingBottom=0;spacingLeft=0;spacingRight=0;verticalAlign=middle;html=1;labelBackgroundColor=#ffffff;rounded=0;align=center;exitX=0.5;exitY=1.03125;exitDx=0;exitDy=0;exitPerimeter=0;entryX=0.55;entryY=0;entryDx=0;entryDy=0;entryPerimeter=0;" parent="1" source="41" target="40" edge="1">
            <mxGeometry relative="1" as="geometry">
              <mxPoint x="6" y="-1" as="offset" />
              <Array as="points">
                <mxPoint x="1605" y="2548" />
                <mxPoint x="1612" y="2548" />
              </Array>
            </mxGeometry>
          </mxCell>
        </UserObject>
        <UserObject label="&lt;div style=&quot;font-size: 1px&quot;&gt;&lt;font style=&quot;font-size:11.29px;font-family:Calibri;color:#000000;direction:ltr;letter-spacing:0px;line-height:120%;opacity:1&quot;&gt;registrarse&lt;br/&gt;&lt;/font&gt;&lt;/div&gt;" tags="Conector" id="134">
          <mxCell style="vsdxID=101;edgeStyle=none;startArrow=none;endArrow=block;startSize=5;endSize=5;strokeColor=#000000;spacingTop=0;spacingBottom=0;spacingLeft=0;spacingRight=0;verticalAlign=middle;html=1;labelBackgroundColor=#ffffff;rounded=0;align=center;exitX=0.5;exitY=1;exitDx=0;exitDy=0;exitPerimeter=0;entryX=0.515527950310559;entryY=0;entryDx=0;entryDy=0;entryPerimeter=0;" parent="1" source="35" target="39" edge="1">
            <mxGeometry relative="1" as="geometry">
              <mxPoint x="10" y="-35" as="offset" />
              <Array as="points" />
            </mxGeometry>
          </mxCell>
        </UserObject>
        <UserObject label="&lt;div style=&quot;font-size: 1px&quot;&gt;&lt;/div&gt;" tags="Conector" id="135">
          <mxCell style="vsdxID=99;edgeStyle=none;startArrow=none;endArrow=block;startSize=5;endSize=5;strokeColor=#000000;spacingTop=0;spacingBottom=0;spacingLeft=0;spacingRight=0;verticalAlign=middle;html=1;labelBackgroundColor=#ffffff;rounded=0;align=center;exitX=0.5031055900621118;exitY=1;exitDx=0;exitDy=0;exitPerimeter=0;entryX=0.5;entryY=0;entryDx=0;entryDy=0;entryPerimeter=0;" parent="1" source="37" target="15" edge="1">
            <mxGeometry relative="1" as="geometry">
              <mxPoint x="10" y="-1" as="offset" />
              <Array as="points" />
            </mxGeometry>
          </mxCell>
        </UserObject>
        <UserObject label="" tags="Conector" id="136">
          <mxCell style="vsdxID=38;edgeStyle=none;startArrow=none;endArrow=block;startSize=5;endSize=5;strokeColor=#000000;spacingTop=0;spacingBottom=0;spacingLeft=0;spacingRight=0;verticalAlign=middle;html=1;labelBackgroundColor=#ffffff;rounded=0;exitX=1;exitY=0.5;exitDx=0;exitDy=0;exitPerimeter=0;entryX=0.05;entryY=0.5;entryDx=0;entryDy=0;entryPerimeter=0;" parent="1" source="8" target="6" edge="1">
            <mxGeometry relative="1" as="geometry">
              <mxPoint x="-1" as="offset" />
              <Array as="points" />
            </mxGeometry>
          </mxCell>
        </UserObject>
        <UserObject label="" tags="Conector" id="137">
          <mxCell style="vsdxID=37;edgeStyle=none;startArrow=none;endArrow=block;startSize=5;endSize=5;strokeColor=#000000;spacingTop=0;spacingBottom=0;spacingLeft=0;spacingRight=0;verticalAlign=middle;html=1;labelBackgroundColor=#ffffff;rounded=0;exitX=0.5;exitY=1.0277777777777777;exitDx=0;exitDy=0;exitPerimeter=0;entryX=0.5;entryY=0;entryDx=0;entryDy=0;entryPerimeter=0;" parent="1" source="12" target="8" edge="1">
            <mxGeometry relative="1" as="geometry">
              <mxPoint x="10" y="-1" as="offset" />
              <Array as="points" />
            </mxGeometry>
          </mxCell>
        </UserObject>
        <UserObject label="" tags="Conector" id="138">
          <mxCell style="vsdxID=36;edgeStyle=none;startArrow=none;endArrow=block;startSize=5;endSize=5;strokeColor=#000000;spacingTop=0;spacingBottom=0;spacingLeft=0;spacingRight=0;verticalAlign=middle;html=1;labelBackgroundColor=#ffffff;rounded=0;exitX=0.5;exitY=1;exitDx=0;exitDy=0;exitPerimeter=0;entryX=0.5;entryY=0;entryDx=0;entryDy=0;entryPerimeter=0;" parent="1" source="5" target="12" edge="1">
            <mxGeometry relative="1" as="geometry">
              <mxPoint x="10" as="offset" />
              <Array as="points" />
            </mxGeometry>
          </mxCell>
        </UserObject>
        <UserObject label="" tags="Conector" id="139">
          <mxCell style="vsdxID=35;edgeStyle=none;startArrow=none;endArrow=block;startSize=5;endSize=5;strokeColor=#000000;spacingTop=0;spacingBottom=0;spacingLeft=0;spacingRight=0;verticalAlign=middle;html=1;labelBackgroundColor=#ffffff;rounded=0;exitX=0.5063291139240507;exitY=1.03125;exitDx=0;exitDy=0;exitPerimeter=0;entryX=0.5;entryY=0;entryDx=0;entryDy=0;entryPerimeter=0;" parent="1" source="4" target="5" edge="1">
            <mxGeometry relative="1" as="geometry">
              <mxPoint x="10" as="offset" />
              <Array as="points" />
            </mxGeometry>
          </mxCell>
        </UserObject>
        <UserObject label="" tags="Conector" id="140">
          <mxCell style="vsdxID=34;edgeStyle=none;startArrow=none;endArrow=block;startSize=5;endSize=5;strokeColor=#000000;spacingTop=0;spacingBottom=0;spacingLeft=0;spacingRight=0;verticalAlign=middle;html=1;labelBackgroundColor=#ffffff;rounded=0;exitX=0.5;exitY=1.0185185185185186;exitDx=0;exitDy=0;exitPerimeter=0;entryX=0.5063291139240507;entryY=0;entryDx=0;entryDy=0;entryPerimeter=0;" parent="1" source="2" target="4" edge="1">
            <mxGeometry relative="1" as="geometry">
              <mxPoint x="10" as="offset" />
              <Array as="points" />
            </mxGeometry>
          </mxCell>
        </UserObject>
        <UserObject label="" tags="Conector" id="141">
          <mxCell style="vsdxID=39;edgeStyle=none;startArrow=none;endArrow=block;startSize=5;endSize=5;strokeColor=#000000;spacingTop=0;spacingBottom=0;spacingLeft=0;spacingRight=0;verticalAlign=middle;html=1;labelBackgroundColor=#ffffff;rounded=0;exitX=0.45;exitY=1;exitDx=0;exitDy=0;exitPerimeter=0;entryX=0.5;entryY=0;entryDx=0;entryDy=0;entryPerimeter=0;" parent="1" source="6" target="9" edge="1">
            <mxGeometry relative="1" as="geometry">
              <mxPoint x="-8" as="offset" />
              <Array as="points">
                <mxPoint x="833" y="779" />
                <mxPoint x="830" y="779" />
              </Array>
            </mxGeometry>
          </mxCell>
        </UserObject>
        <UserObject label="" tags="Conector" id="142">
          <mxCell style="vsdxID=40;edgeStyle=none;startArrow=none;endArrow=block;startSize=5;endSize=5;strokeColor=#000000;spacingTop=0;spacingBottom=0;spacingLeft=0;spacingRight=0;verticalAlign=middle;html=1;labelBackgroundColor=#ffffff;rounded=0;exitX=0;exitY=0.53125;exitDx=0;exitDy=0;exitPerimeter=0;entryX=0.95;entryY=0.5;entryDx=0;entryDy=0;entryPerimeter=0;" parent="1" source="9" target="7" edge="1">
            <mxGeometry relative="1" as="geometry">
              <mxPoint as="offset" />
              <Array as="points">
                <mxPoint x="762.5" y="811" />
                <mxPoint x="762.5" y="815.55" />
              </Array>
            </mxGeometry>
          </mxCell>
        </UserObject>
        <UserObject label="" tags="Conector" id="143">
          <mxCell style="vsdxID=41;edgeStyle=none;startArrow=none;endArrow=block;startSize=5;endSize=5;strokeColor=#000000;spacingTop=0;spacingBottom=0;spacingLeft=0;spacingRight=0;verticalAlign=middle;html=1;labelBackgroundColor=#ffffff;rounded=0;exitX=0.45;exitY=1;exitDx=0;exitDy=0;exitPerimeter=0;entryX=0.5;entryY=0;entryDx=0;entryDy=0;entryPerimeter=0;" parent="1" source="7" target="76" edge="1">
            <mxGeometry relative="1" as="geometry">
              <mxPoint x="6" as="offset" />
              <Array as="points">
                <mxPoint x="673" y="840.5" />
                <mxPoint x="680" y="840.5" />
              </Array>
            </mxGeometry>
          </mxCell>
        </UserObject>
        <UserObject label="" tags="Conector" id="144">
          <mxCell style="vsdxID=42;edgeStyle=none;startArrow=none;endArrow=block;startSize=5;endSize=5;strokeColor=#000000;spacingTop=0;spacingBottom=0;spacingLeft=0;spacingRight=0;verticalAlign=middle;html=1;labelBackgroundColor=#ffffff;rounded=0;exitX=0.45;exitY=1;exitDx=0;exitDy=0;exitPerimeter=0;entryX=0.5;entryY=0;entryDx=0;entryDy=0;entryPerimeter=0;" parent="1" source="33" target="19" edge="1">
            <mxGeometry relative="1" as="geometry">
              <mxPoint x="6" as="offset" />
              <Array as="points">
                <mxPoint x="1478" y="1432" />
                <mxPoint x="1485" y="1432" />
              </Array>
            </mxGeometry>
          </mxCell>
        </UserObject>
        <UserObject label="" tags="Conector" id="145">
          <mxCell style="vsdxID=43;edgeStyle=none;startArrow=none;endArrow=block;startSize=5;endSize=5;strokeColor=#000000;spacingTop=0;spacingBottom=0;spacingLeft=0;spacingRight=0;verticalAlign=middle;html=1;labelBackgroundColor=#ffffff;rounded=0;exitX=0;exitY=0.5;exitDx=0;exitDy=0;exitPerimeter=0;entryX=0.95;entryY=0.5;entryDx=0;entryDy=0;entryPerimeter=0;" parent="1" source="20" target="33" edge="1">
            <mxGeometry relative="1" as="geometry">
              <mxPoint y="-1" as="offset" />
              <Array as="points" />
            </mxGeometry>
          </mxCell>
        </UserObject>
        <UserObject label="&lt;div style=&quot;font-size: 1px&quot;&gt;&lt;font style=&quot;font-size:11.29px;font-family:Calibri;color:#000000;direction:ltr;letter-spacing:0px;line-height:120%;opacity:1&quot;&gt;SI&lt;br/&gt;&lt;/font&gt;&lt;/div&gt;" tags="Conector" id="146">
          <mxCell style="vsdxID=44;edgeStyle=none;startArrow=none;endArrow=block;startSize=5;endSize=5;strokeColor=#000000;spacingTop=0;spacingBottom=0;spacingLeft=0;spacingRight=0;verticalAlign=middle;html=1;labelBackgroundColor=#ffffff;rounded=0;align=center;exitX=0.5;exitY=1.0185185185185186;exitDx=0;exitDy=0;exitPerimeter=0;entryX=0.6464285714285715;entryY=0;entryDx=0;entryDy=0;entryPerimeter=0;" parent="1" source="10" target="11" edge="1">
            <mxGeometry relative="1" as="geometry">
              <mxPoint x="10" as="offset" />
              <Array as="points" />
            </mxGeometry>
          </mxCell>
        </UserObject>
        <UserObject label="&lt;div style=&quot;font-size: 1px&quot;&gt;&lt;font style=&quot;font-size:11.29px;font-family:Calibri;color:#000000;direction:ltr;letter-spacing:0px;line-height:120%;opacity:1&quot;&gt;NO&lt;br/&gt;&lt;/font&gt;&lt;/div&gt;" tags="Conector" id="147">
          <mxCell style="vsdxID=45;edgeStyle=none;startArrow=none;endArrow=block;startSize=5;endSize=5;strokeColor=#000000;spacingTop=0;spacingBottom=0;spacingLeft=0;spacingRight=0;verticalAlign=middle;html=1;labelBackgroundColor=#ffffff;rounded=0;align=center;exitX=0;exitY=0.5;exitDx=0;exitDy=0;exitPerimeter=0;entryX=0.5;entryY=1.03125;entryDx=0;entryDy=0;entryPerimeter=0;" parent="1" source="10" target="69" edge="1">
            <mxGeometry relative="1" as="geometry">
              <mxPoint x="71" y="7" as="offset" />
              <Array as="points">
                <mxPoint x="559.88" y="1402" />
              </Array>
            </mxGeometry>
          </mxCell>
        </UserObject>
        <UserObject label="" tags="Conector" id="148">
          <mxCell style="vsdxID=66;edgeStyle=none;startArrow=none;endArrow=block;startSize=5;endSize=5;strokeColor=#000000;spacingTop=0;spacingBottom=0;spacingLeft=0;spacingRight=0;verticalAlign=middle;html=1;labelBackgroundColor=#ffffff;rounded=0;exitX=1;exitY=0.5;exitDx=0;exitDy=0;exitPerimeter=0;entryX=0.05;entryY=0.5;entryDx=0;entryDy=0;entryPerimeter=0;" parent="1" source="19" target="34" edge="1">
            <mxGeometry relative="1" as="geometry">
              <mxPoint as="offset" />
              <Array as="points">
                <mxPoint x="1560" y="1463" />
                <mxPoint x="1560" y="1464.98" />
              </Array>
            </mxGeometry>
          </mxCell>
        </UserObject>
        <UserObject label="" tags="Conector" id="149">
          <mxCell style="vsdxID=67;edgeStyle=none;startArrow=none;endArrow=block;startSize=5;endSize=5;strokeColor=#000000;spacingTop=0;spacingBottom=0;spacingLeft=0;spacingRight=0;verticalAlign=middle;html=1;labelBackgroundColor=#ffffff;rounded=0;exitX=0.45;exitY=1.0277777777777777;exitDx=0;exitDy=0;exitPerimeter=0;entryX=0.5;entryY=0;entryDx=0;entryDy=0;entryPerimeter=0;" parent="1" source="34" target="22" edge="1">
            <mxGeometry relative="1" as="geometry">
              <mxPoint x="-9" as="offset" />
              <Array as="points">
                <mxPoint x="1638" y="1499" />
                <mxPoint x="1635" y="1499" />
              </Array>
            </mxGeometry>
          </mxCell>
        </UserObject>
        <UserObject label="" tags="Conector" id="150">
          <mxCell style="vsdxID=68;edgeStyle=none;startArrow=none;endArrow=block;startSize=5;endSize=5;strokeColor=#000000;spacingTop=0;spacingBottom=0;spacingLeft=0;spacingRight=0;verticalAlign=middle;html=1;labelBackgroundColor=#ffffff;rounded=0;exitX=0;exitY=0.5;exitDx=0;exitDy=0;exitPerimeter=0;entryX=0.95;entryY=0.5;entryDx=0;entryDy=0;entryPerimeter=0;" parent="1" source="22" target="32" edge="1">
            <mxGeometry relative="1" as="geometry">
              <mxPoint x="-1" as="offset" />
              <Array as="points">
                <mxPoint x="1567.5" y="1534" />
                <mxPoint x="1567.5" y="1535.98" />
              </Array>
            </mxGeometry>
          </mxCell>
        </UserObject>
        <UserObject label="" tags="Conector" id="151">
          <mxCell style="vsdxID=69;edgeStyle=none;startArrow=none;endArrow=block;startSize=5;endSize=5;strokeColor=#000000;spacingTop=0;spacingBottom=0;spacingLeft=0;spacingRight=0;verticalAlign=middle;html=1;labelBackgroundColor=#ffffff;rounded=0;exitX=0.45;exitY=1;exitDx=0;exitDy=0;exitPerimeter=0;entryX=0.5;entryY=0;entryDx=0;entryDy=0;entryPerimeter=0;" parent="1" source="32" target="23" edge="1">
            <mxGeometry relative="1" as="geometry">
              <mxPoint x="6" as="offset" />
              <Array as="points">
                <mxPoint x="1478" y="1569" />
                <mxPoint x="1485" y="1569" />
              </Array>
            </mxGeometry>
          </mxCell>
        </UserObject>
        <UserObject label="" tags="Conector" id="152">
          <mxCell style="vsdxID=70;edgeStyle=none;startArrow=none;endArrow=block;startSize=5;endSize=5;strokeColor=#000000;spacingTop=0;spacingBottom=0;spacingLeft=0;spacingRight=0;verticalAlign=middle;html=1;labelBackgroundColor=#ffffff;rounded=0;exitX=1;exitY=0.5;exitDx=0;exitDy=0;exitPerimeter=0;entryX=0.05;entryY=0.5;entryDx=0;entryDy=0;entryPerimeter=0;" parent="1" source="23" target="28" edge="1">
            <mxGeometry relative="1" as="geometry">
              <mxPoint as="offset" />
              <Array as="points">
                <mxPoint x="1560" y="1608" />
                <mxPoint x="1560" y="1609.98" />
              </Array>
            </mxGeometry>
          </mxCell>
        </UserObject>
        <UserObject label="" tags="Conector" id="153">
          <mxCell style="vsdxID=71;edgeStyle=none;startArrow=none;endArrow=block;startSize=5;endSize=5;strokeColor=#000000;spacingTop=0;spacingBottom=0;spacingLeft=0;spacingRight=0;verticalAlign=middle;html=1;labelBackgroundColor=#ffffff;rounded=0;exitX=0.45;exitY=1.0277777777777777;exitDx=0;exitDy=0;exitPerimeter=0;entryX=0.5;entryY=0;entryDx=0;entryDy=0;entryPerimeter=0;" parent="1" source="28" target="24" edge="1">
            <mxGeometry relative="1" as="geometry">
              <mxPoint x="6" as="offset" />
              <Array as="points">
                <mxPoint x="1650" y="1644" />
                <mxPoint x="1657" y="1644" />
              </Array>
            </mxGeometry>
          </mxCell>
        </UserObject>
        <UserObject label="" tags="Conector" id="154">
          <mxCell style="vsdxID=72;edgeStyle=none;startArrow=none;endArrow=block;startSize=5;endSize=5;strokeColor=#000000;spacingTop=0;spacingBottom=0;spacingLeft=0;spacingRight=0;verticalAlign=middle;html=1;labelBackgroundColor=#ffffff;rounded=0;exitX=0;exitY=0.5;exitDx=0;exitDy=0;exitPerimeter=0;entryX=0.95;entryY=0.5;entryDx=0;entryDy=0;entryPerimeter=0;" parent="1" source="24" target="29" edge="1">
            <mxGeometry relative="1" as="geometry">
              <mxPoint as="offset" />
              <Array as="points" />
            </mxGeometry>
          </mxCell>
        </UserObject>
        <UserObject label="" tags="Conector" id="155">
          <mxCell style="vsdxID=73;edgeStyle=none;startArrow=none;endArrow=block;startSize=5;endSize=5;strokeColor=#000000;spacingTop=0;spacingBottom=0;spacingLeft=0;spacingRight=0;verticalAlign=middle;html=1;labelBackgroundColor=#ffffff;rounded=0;exitX=0.45;exitY=1.0277777777777777;exitDx=0;exitDy=0;exitPerimeter=0;entryX=0.5;entryY=0;entryDx=0;entryDy=0;entryPerimeter=0;" parent="1" source="31" target="27" edge="1">
            <mxGeometry relative="1" as="geometry">
              <mxPoint x="-9" as="offset" />
              <Array as="points">
                <mxPoint x="1488" y="1846" />
                <mxPoint x="1485" y="1846" />
              </Array>
            </mxGeometry>
          </mxCell>
        </UserObject>
        <UserObject label="" tags="Conector" id="156">
          <mxCell style="vsdxID=74;edgeStyle=none;startArrow=none;endArrow=block;startSize=5;endSize=5;strokeColor=#000000;spacingTop=0;spacingBottom=0;spacingLeft=0;spacingRight=0;verticalAlign=middle;html=1;labelBackgroundColor=#ffffff;rounded=0;exitX=0;exitY=0.5;exitDx=0;exitDy=0;exitPerimeter=0;entryX=0.95;entryY=0.5;entryDx=0;entryDy=0;entryPerimeter=0;" parent="1" source="26" target="31" edge="1">
            <mxGeometry relative="1" as="geometry">
              <mxPoint x="-1" as="offset" />
              <Array as="points">
                <mxPoint x="1573.25" y="1810" />
                <mxPoint x="1573.25" y="1811.98" />
              </Array>
            </mxGeometry>
          </mxCell>
        </UserObject>
        <UserObject label="" tags="Conector" id="157">
          <mxCell style="vsdxID=77;edgeStyle=none;startArrow=none;endArrow=block;startSize=5;endSize=5;strokeColor=#000000;spacingTop=0;spacingBottom=0;spacingLeft=0;spacingRight=0;verticalAlign=middle;html=1;labelBackgroundColor=#ffffff;rounded=0;exitX=0.45;exitY=1;exitDx=0;exitDy=0;exitPerimeter=0;entryX=0.5;entryY=0;entryDx=0;entryDy=0;entryPerimeter=0;" parent="1" source="29" target="25" edge="1">
            <mxGeometry relative="1" as="geometry">
              <mxPoint x="-9" y="-1" as="offset" />
              <Array as="points">
                <mxPoint x="1488" y="1708" />
                <mxPoint x="1485" y="1708" />
              </Array>
            </mxGeometry>
          </mxCell>
        </UserObject>
        <UserObject label="" tags="Conector" id="158">
          <mxCell style="vsdxID=78;edgeStyle=none;startArrow=none;endArrow=block;startSize=5;endSize=5;strokeColor=#000000;spacingTop=0;spacingBottom=0;spacingLeft=0;spacingRight=0;verticalAlign=middle;html=1;labelBackgroundColor=#ffffff;rounded=0;exitX=1;exitY=0.5;exitDx=0;exitDy=0;exitPerimeter=0;entryX=0.05;entryY=0.5;entryDx=0;entryDy=0;entryPerimeter=0;" parent="1" source="25" target="30" edge="1">
            <mxGeometry relative="1" as="geometry">
              <mxPoint as="offset" />
              <Array as="points">
                <mxPoint x="1560" y="1744" />
                <mxPoint x="1560" y="1745.98" />
              </Array>
            </mxGeometry>
          </mxCell>
        </UserObject>
        <UserObject label="" tags="Conector" id="159">
          <mxCell style="vsdxID=79;edgeStyle=none;startArrow=none;endArrow=block;startSize=5;endSize=5;strokeColor=#000000;spacingTop=0;spacingBottom=0;spacingLeft=0;spacingRight=0;verticalAlign=middle;html=1;labelBackgroundColor=#ffffff;rounded=0;exitX=0.45;exitY=1;exitDx=0;exitDy=0;exitPerimeter=0;entryX=0.5;entryY=0;entryDx=0;entryDy=0;entryPerimeter=0;" parent="1" source="30" target="26" edge="1">
            <mxGeometry relative="1" as="geometry">
              <mxPoint x="-8" as="offset" />
              <Array as="points">
                <mxPoint x="1640" y="1779" />
                <mxPoint x="1637" y="1779" />
              </Array>
            </mxGeometry>
          </mxCell>
        </UserObject>
        <UserObject label="" tags="Conector" id="160">
          <mxCell style="vsdxID=80;edgeStyle=none;startArrow=none;endArrow=block;startSize=5;endSize=5;strokeColor=#000000;spacingTop=0;spacingBottom=0;spacingLeft=0;spacingRight=0;verticalAlign=middle;html=1;labelBackgroundColor=#ffffff;rounded=0;exitX=0.5;exitY=1;exitDx=0;exitDy=0;exitPerimeter=0;entryX=0.5;entryY=0;entryDx=0;entryDy=0;entryPerimeter=0;" parent="1" source="21" target="20" edge="1">
            <mxGeometry relative="1" as="geometry">
              <mxPoint x="10" y="-1" as="offset" />
              <Array as="points" />
            </mxGeometry>
          </mxCell>
        </UserObject>
        <UserObject label="" tags="Conector" id="161">
          <mxCell style="vsdxID=82;edgeStyle=none;startArrow=none;endArrow=block;startSize=5;endSize=5;strokeColor=#000000;spacingTop=0;spacingBottom=0;spacingLeft=0;spacingRight=0;verticalAlign=middle;html=1;labelBackgroundColor=#ffffff;rounded=0;exitX=0.5;exitY=1;exitDx=0;exitDy=0;exitPerimeter=0;entryX=0.5;entryY=0;entryDx=0;entryDy=0;entryPerimeter=0;" parent="1" source="18" target="36" edge="1">
            <mxGeometry relative="1" as="geometry">
              <mxPoint x="10" as="offset" />
              <Array as="points" />
            </mxGeometry>
          </mxCell>
        </UserObject>
        <UserObject label="" tags="Conector" id="162">
          <mxCell style="vsdxID=86;edgeStyle=none;startArrow=none;endArrow=block;startSize=5;endSize=5;strokeColor=#000000;spacingTop=0;spacingBottom=0;spacingLeft=0;spacingRight=0;verticalAlign=middle;html=1;labelBackgroundColor=#ffffff;rounded=0;exitX=0.5;exitY=1;exitDx=0;exitDy=0;exitPerimeter=0;entryX=0.55;entryY=0;entryDx=0;entryDy=0;entryPerimeter=0;" parent="1" source="13" target="14" edge="1">
            <mxGeometry relative="1" as="geometry">
              <mxPoint x="6" as="offset" />
              <Array as="points">
                <mxPoint x="1101" y="1274" />
                <mxPoint x="1108" y="1274" />
              </Array>
            </mxGeometry>
          </mxCell>
        </UserObject>
        <UserObject label="" tags="Conector" id="163">
          <mxCell style="vsdxID=87;edgeStyle=none;startArrow=none;endArrow=block;startSize=5;endSize=5;strokeColor=#000000;spacingTop=0;spacingBottom=0;spacingLeft=0;spacingRight=0;verticalAlign=middle;html=1;labelBackgroundColor=#ffffff;rounded=0;exitX=0.45;exitY=1;exitDx=0;exitDy=0;exitPerimeter=0;entryX=0.5;entryY=0;entryDx=0;entryDy=0;entryPerimeter=0;" parent="1" source="14" target="53" edge="1">
            <mxGeometry relative="1" as="geometry">
              <mxPoint x="6" as="offset" />
              <Array as="points">
                <mxPoint x="1094" y="1364" />
                <mxPoint x="1101" y="1364" />
              </Array>
            </mxGeometry>
          </mxCell>
        </UserObject>
        <UserObject label="" tags="Conector" id="164">
          <mxCell style="vsdxID=88;edgeStyle=none;startArrow=none;endArrow=block;startSize=5;endSize=5;strokeColor=#000000;spacingTop=0;spacingBottom=0;spacingLeft=0;spacingRight=0;verticalAlign=middle;html=1;labelBackgroundColor=#ffffff;rounded=0;exitX=1;exitY=0.5;exitDx=0;exitDy=0;exitPerimeter=0;entryX=0.05;entryY=0.5;entryDx=0;entryDy=0;entryPerimeter=0;" parent="1" source="17" target="16" edge="1">
            <mxGeometry relative="1" as="geometry">
              <mxPoint x="-1" as="offset" />
              <Array as="points">
                <mxPoint x="1186.5" y="1788" />
                <mxPoint x="1186.5" y="1789.98" />
              </Array>
            </mxGeometry>
          </mxCell>
        </UserObject>
        <UserObject label="" tags="Conector" id="165">
          <mxCell style="vsdxID=89;edgeStyle=none;startArrow=none;endArrow=block;startSize=5;endSize=5;strokeColor=#000000;spacingTop=0;spacingBottom=0;spacingLeft=0;spacingRight=0;verticalAlign=middle;html=1;labelBackgroundColor=#ffffff;rounded=0;exitX=0.5;exitY=1.03125;exitDx=0;exitDy=0;exitPerimeter=0;entryX=0.5;entryY=0;entryDx=0;entryDy=0;entryPerimeter=0;" parent="1" source="15" target="17" edge="1">
            <mxGeometry relative="1" as="geometry">
              <mxPoint x="10" y="-1" as="offset" />
              <Array as="points" />
            </mxGeometry>
          </mxCell>
        </UserObject>
        <UserObject label="" tags="Conector" id="166">
          <mxCell style="vsdxID=91;edgeStyle=none;startArrow=none;endArrow=block;startSize=5;endSize=5;strokeColor=#000000;spacingTop=0;spacingBottom=0;spacingLeft=0;spacingRight=0;verticalAlign=middle;html=1;labelBackgroundColor=#ffffff;rounded=0;exitX=1;exitY=0.53125;exitDx=0;exitDy=0;exitPerimeter=0;entryX=0.05;entryY=0.5277777777777778;entryDx=0;entryDy=0;entryPerimeter=0;" parent="1" source="27" target="38" edge="1">
            <mxGeometry relative="1" as="geometry">
              <mxPoint as="offset" />
              <Array as="points">
                <mxPoint x="1560" y="1885" />
                <mxPoint x="1560" y="1886.98" />
              </Array>
            </mxGeometry>
          </mxCell>
        </UserObject>
        <UserObject label="&lt;div style=&quot;font-size: 1px&quot;&gt;&lt;/div&gt;" tags="Conector" id="167">
          <mxCell style="vsdxID=94;edgeStyle=none;startArrow=none;endArrow=block;startSize=5;endSize=5;strokeColor=#000000;spacingTop=0;spacingBottom=0;spacingLeft=0;spacingRight=0;verticalAlign=middle;html=1;labelBackgroundColor=#ffffff;rounded=0;align=center;exitX=0.5;exitY=1.0277777777777777;exitDx=0;exitDy=0;exitPerimeter=0;entryX=0.5;entryY=0;entryDx=0;entryDy=0;entryPerimeter=0;" parent="1" source="36" target="21" edge="1">
            <mxGeometry relative="1" as="geometry">
              <mxPoint x="10" as="offset" />
              <Array as="points" />
            </mxGeometry>
          </mxCell>
        </UserObject>
        <mxCell id="168" parent="1" vertex="1">
          <mxGeometry x="1101" y="1042" as="geometry" />
        </mxCell>
        <UserObject label="&lt;div style=&quot;font-size: 1px&quot;&gt;&lt;/div&gt;" tags="Conector" id="169">
          <mxCell style="vsdxID=191;edgeStyle=none;startArrow=none;endArrow=block;startSize=5;endSize=5;strokeColor=#000000;spacingTop=0;spacingBottom=0;spacingLeft=0;spacingRight=0;verticalAlign=middle;html=1;labelBackgroundColor=#ffffff;rounded=0;align=center;entryX=0.5031055900621118;entryY=0;entryDx=0;entryDy=0;entryPerimeter=0;" parent="1" source="168" target="80" edge="1">
            <mxGeometry relative="1" as="geometry">
              <mxPoint x="10" y="-1" as="offset" />
              <Array as="points" />
            </mxGeometry>
          </mxCell>
        </UserObject>
        <UserObject label="&lt;div style=&quot;font-size: 1px&quot;&gt;&lt;/div&gt;" tags="Conector" id="170">
          <mxCell style="vsdxID=186;edgeStyle=none;startArrow=none;endArrow=block;startSize=5;endSize=5;strokeColor=#000000;spacingTop=0;spacingBottom=0;spacingLeft=0;spacingRight=0;verticalAlign=middle;html=1;labelBackgroundColor=#ffffff;rounded=0;align=center;exitX=0.5027027027027027;exitY=1;exitDx=0;exitDy=0;exitPerimeter=0;entryX=0.55;entryY=0;entryDx=0;entryDy=0;entryPerimeter=0;" parent="1" source="67" target="68" edge="1">
            <mxGeometry relative="1" as="geometry">
              <mxPoint x="7" y="-1" as="offset" />
              <Array as="points">
                <mxPoint x="1490" y="2076" />
                <mxPoint x="1496" y="2076" />
              </Array>
            </mxGeometry>
          </mxCell>
        </UserObject>
        <UserObject label="&lt;div style=&quot;font-size: 1px&quot;&gt;&lt;/div&gt;" tags="Conector" id="171">
          <mxCell style="vsdxID=164;edgeStyle=none;startArrow=none;endArrow=block;startSize=5;endSize=5;strokeColor=#000000;spacingTop=0;spacingBottom=0;spacingLeft=0;spacingRight=0;verticalAlign=middle;html=1;labelBackgroundColor=#ffffff;rounded=0;align=center;exitX=0;exitY=0.5;exitDx=0;exitDy=0;exitPerimeter=0;entryX=0.95;entryY=0.4838709677419355;entryDx=0;entryDy=0;entryPerimeter=0;" parent="1" source="62" target="63" edge="1">
            <mxGeometry relative="1" as="geometry">
              <mxPoint x="-1" as="offset" />
              <Array as="points">
                <mxPoint x="1565" y="1952" />
                <mxPoint x="1565" y="1952.63" />
              </Array>
            </mxGeometry>
          </mxCell>
        </UserObject>
        <UserObject label="&lt;div style=&quot;font-size: 1px&quot;&gt;&lt;/div&gt;" tags="Conector" id="172">
          <mxCell style="vsdxID=159;edgeStyle=none;startArrow=none;endArrow=block;startSize=5;endSize=5;strokeColor=#000000;spacingTop=0;spacingBottom=0;spacingLeft=0;spacingRight=0;verticalAlign=middle;html=1;labelBackgroundColor=#ffffff;rounded=0;align=center;exitX=0.5;exitY=1;exitDx=0;exitDy=0;exitPerimeter=0;entryX=0.55;entryY=0;entryDx=0;entryDy=0;entryPerimeter=0;" parent="1" source="60" target="61" edge="1">
            <mxGeometry relative="1" as="geometry">
              <mxPoint x="10" as="offset" />
              <Array as="points">
                <mxPoint x="1605" y="2685" />
                <mxPoint x="1605.56" y="2685" />
              </Array>
            </mxGeometry>
          </mxCell>
        </UserObject>
        <UserObject label="&lt;div style=&quot;font-size: 1px&quot;&gt;&lt;/div&gt;" tags="Conector" id="173">
          <mxCell style="vsdxID=151;edgeStyle=none;startArrow=none;endArrow=block;startSize=5;endSize=5;strokeColor=#000000;spacingTop=0;spacingBottom=0;spacingLeft=0;spacingRight=0;verticalAlign=middle;html=1;labelBackgroundColor=#ffffff;rounded=0;align=center;exitX=0.5;exitY=1.03125;exitDx=0;exitDy=0;exitPerimeter=0;entryX=0.55;entryY=0;entryDx=0;entryDy=0;entryPerimeter=0;" parent="1" source="56" target="57" edge="1">
            <mxGeometry relative="1" as="geometry">
              <mxPoint x="7" as="offset" />
              <Array as="points">
                <mxPoint x="1119" y="1876" />
                <mxPoint x="1125" y="1876" />
              </Array>
            </mxGeometry>
          </mxCell>
        </UserObject>
        <UserObject label="&lt;div style=&quot;font-size: 1px&quot;&gt;&lt;font style=&quot;font-size:11.29px;font-family:Calibri;color:#000000;direction:ltr;letter-spacing:0px;line-height:120%;opacity:1&quot;&gt;SI&lt;br/&gt;&lt;/font&gt;&lt;/div&gt;" tags="Conector" id="174">
          <mxCell style="vsdxID=148;edgeStyle=none;startArrow=none;endArrow=block;startSize=5;endSize=5;strokeColor=#000000;spacingTop=0;spacingBottom=0;spacingLeft=0;spacingRight=0;verticalAlign=middle;html=1;labelBackgroundColor=#ffffff;rounded=0;align=center;exitX=0.5;exitY=1;exitDx=0;exitDy=0;exitPerimeter=0;entryX=0.4968944099378882;entryY=0;entryDx=0;entryDy=0;entryPerimeter=0;" parent="1" source="55" target="37" edge="1">
            <mxGeometry relative="1" as="geometry">
              <mxPoint x="10" as="offset" />
              <Array as="points" />
            </mxGeometry>
          </mxCell>
        </UserObject>
        <UserObject label="&lt;div style=&quot;font-size: 1px&quot;&gt;&lt;/div&gt;" tags="Conector" id="175">
          <mxCell style="vsdxID=146;edgeStyle=none;startArrow=none;endArrow=block;startSize=5;endSize=5;strokeColor=#000000;spacingTop=0;spacingBottom=0;spacingLeft=0;spacingRight=0;verticalAlign=middle;html=1;labelBackgroundColor=#ffffff;rounded=0;align=center;exitX=0.45614035087719296;exitY=1.0384615384615385;exitDx=0;exitDy=0;exitPerimeter=0;entryX=0.5;entryY=0;entryDx=0;entryDy=0;entryPerimeter=0;" parent="1" source="54" target="55" edge="1">
            <mxGeometry relative="1" as="geometry">
              <mxPoint x="7" as="offset" />
              <Array as="points">
                <mxPoint x="1113" y="1479" />
                <mxPoint x="1118.7" y="1479" />
              </Array>
            </mxGeometry>
          </mxCell>
        </UserObject>
        <UserObject label="&lt;div style=&quot;font-size: 1px&quot;&gt;&lt;/div&gt;" tags="Conector" id="176">
          <mxCell style="vsdxID=144;edgeStyle=none;startArrow=none;endArrow=block;startSize=5;endSize=5;strokeColor=#000000;spacingTop=0;spacingBottom=0;spacingLeft=0;spacingRight=0;verticalAlign=middle;html=1;labelBackgroundColor=#ffffff;rounded=0;align=center;exitX=0.5;exitY=1;exitDx=0;exitDy=0;exitPerimeter=0;entryX=0.5526315789473685;entryY=0;entryDx=0;entryDy=0;entryPerimeter=0;" parent="1" source="53" target="54" edge="1">
            <mxGeometry relative="1" as="geometry">
              <mxPoint x="-1" as="offset" />
              <Array as="points">
                <mxPoint x="1101" y="1420.5" />
                <mxPoint x="1124.26" y="1420.5" />
              </Array>
            </mxGeometry>
          </mxCell>
        </UserObject>
        <mxCell id="177" parent="1" vertex="1">
          <mxGeometry x="320" y="1949" as="geometry" />
        </mxCell>
        <UserObject label="&lt;div style=&quot;font-size: 1px&quot;&gt;&lt;/div&gt;" tags="Conector" id="178">
          <mxCell style="vsdxID=136;edgeStyle=none;startArrow=none;endArrow=block;startSize=5;endSize=5;strokeColor=#000000;spacingTop=0;spacingBottom=0;spacingLeft=0;spacingRight=0;verticalAlign=middle;html=1;labelBackgroundColor=#ffffff;rounded=0;align=center;exitX=0;exitY=0.4878048780487805;exitDx=0;exitDy=0;exitPerimeter=0;" parent="1" source="51" target="177" edge="1">
            <mxGeometry relative="1" as="geometry">
              <mxPoint y="-1" as="offset" />
              <Array as="points">
                <mxPoint x="538.44" y="2387" />
                <mxPoint x="538.44" y="1948.27" />
              </Array>
            </mxGeometry>
          </mxCell>
        </UserObject>
        <UserObject label="&lt;div style=&quot;font-size: 1px&quot;&gt;&lt;font style=&quot;font-size:11.29px;font-family:Calibri;color:#000000;direction:ltr;letter-spacing:0px;line-height:120%;opacity:1&quot;&gt;SI&lt;br/&gt;&lt;/font&gt;&lt;/div&gt;" tags="Conector" id="179">
          <mxCell style="vsdxID=125;edgeStyle=none;startArrow=none;endArrow=block;startSize=5;endSize=5;strokeColor=#000000;spacingTop=0;spacingBottom=0;spacingLeft=0;spacingRight=0;verticalAlign=middle;html=1;labelBackgroundColor=#ffffff;rounded=0;align=center;exitX=0.5;exitY=1;exitDx=0;exitDy=0;exitPerimeter=0;entryX=0.5;entryY=0;entryDx=0;entryDy=0;entryPerimeter=0;" parent="1" source="46" target="47" edge="1">
            <mxGeometry relative="1" as="geometry">
              <mxPoint x="9" y="-1" as="offset" />
              <Array as="points">
                <mxPoint x="1119" y="2013" />
                <mxPoint x="1119.56" y="2013" />
              </Array>
            </mxGeometry>
          </mxCell>
        </UserObject>
        <mxCell id="180" parent="1" vertex="1">
          <mxGeometry x="680" y="519" as="geometry" />
        </mxCell>
        <UserObject label="&lt;div style=&quot;font-size: 1px&quot;&gt;&lt;/div&gt;" tags="Conector" id="181">
          <mxCell style="vsdxID=120;edgeStyle=none;startArrow=none;endArrow=block;startSize=5;endSize=5;strokeColor=#000000;spacingTop=0;spacingBottom=0;spacingLeft=0;spacingRight=0;verticalAlign=middle;html=1;labelBackgroundColor=#ffffff;rounded=0;align=center;exitX=0;exitY=0.5;exitDx=0;exitDy=0;exitPerimeter=0;" parent="1" source="45" target="180" edge="1">
            <mxGeometry relative="1" as="geometry">
              <mxPoint as="offset" />
              <Array as="points">
                <mxPoint x="320" y="2540" />
                <mxPoint x="320" y="518.47" />
              </Array>
            </mxGeometry>
          </mxCell>
        </UserObject>
        <UserObject label="&lt;div style=&quot;font-size: 1px&quot;&gt;&lt;font style=&quot;font-size:11.29px;font-family:Calibri;color:#000000;direction:ltr;letter-spacing:0px;line-height:120%;opacity:1&quot;&gt;SI&lt;br/&gt;&lt;/font&gt;&lt;/div&gt;" tags="Conector" id="182">
          <mxCell style="vsdxID=107;edgeStyle=none;startArrow=none;endArrow=block;startSize=5;endSize=5;strokeColor=#000000;spacingTop=0;spacingBottom=0;spacingLeft=0;spacingRight=0;verticalAlign=middle;html=1;labelBackgroundColor=#ffffff;rounded=0;align=center;exitX=0;exitY=0.5;exitDx=0;exitDy=0;exitPerimeter=0;entryX=0.5;entryY=1.0185185185185186;entryDx=0;entryDy=0;entryPerimeter=0;" parent="1" source="42" target="45" edge="1">
            <mxGeometry relative="1" as="geometry">
              <mxPoint x="127" as="offset" />
              <Array as="points">
                <mxPoint x="996" y="2789" />
              </Array>
            </mxGeometry>
          </mxCell>
        </UserObject>
        <UserObject label="&lt;div style=&quot;font-size: 1px&quot;&gt;&lt;/div&gt;" tags="Conector" id="183">
          <mxCell style="vsdxID=103;edgeStyle=none;startArrow=none;endArrow=block;startSize=5;endSize=5;strokeColor=#000000;spacingTop=0;spacingBottom=0;spacingLeft=0;spacingRight=0;verticalAlign=middle;html=1;labelBackgroundColor=#ffffff;rounded=0;align=center;exitX=0.5031055900621118;exitY=1;exitDx=0;exitDy=0;exitPerimeter=0;entryX=0.5;entryY=0;entryDx=0;entryDy=0;entryPerimeter=0;" parent="1" source="39" target="41" edge="1">
            <mxGeometry relative="1" as="geometry">
              <mxPoint x="10" as="offset" />
              <Array as="points" />
            </mxGeometry>
          </mxCell>
        </UserObject>
        <UserObject label="&lt;div style=&quot;font-size: 1px&quot;&gt;&lt;/div&gt;" tags="Conector" id="184">
          <mxCell style="vsdxID=97;edgeStyle=none;startArrow=none;endArrow=block;startSize=5;endSize=5;strokeColor=#000000;spacingTop=0;spacingBottom=0;spacingLeft=0;spacingRight=0;verticalAlign=middle;html=1;labelBackgroundColor=#ffffff;rounded=0;align=center;exitX=0.45;exitY=1.0277777777777777;exitDx=0;exitDy=0;exitPerimeter=0;entryX=0.5;entryY=0;entryDx=0;entryDy=0;entryPerimeter=0;" parent="1" source="38" target="62" edge="1">
            <mxGeometry relative="1" as="geometry">
              <mxPoint x="-10" y="-1" as="offset" />
              <Array as="points">
                <mxPoint x="1640" y="1920" />
                <mxPoint x="1639.56" y="1920" />
              </Array>
            </mxGeometry>
          </mxCell>
        </UserObject>
      </root>
    </mxGraphModel>
  </diagram>
</mxfile>
